<svg id="Layer_5" enable-background="new 0 0 62 62" height="512" viewBox="0 0 62 62" width="512" xmlns="http://www.w3.org/2000/svg"><g><path d="m59 14v-5c0-4.963-4.037-9-9-9s-9 4.037-9 9v5c-1.302 0-2.402.839-2.816 2h-31.184c-3.859 0-7 3.141-7 7s3.141 7 7 7h4v7.23c-.927-.757-2.094-1.23-3.382-1.23-1.443 0-2.618 1.175-2.618 2.618 0 .404.096.81.276 1.171 1.128 2.256 1.724 4.78 1.723 7.302v2.423c0 1.872.729 3.63 2.051 4.951l.15.15c-.724.548-1.2 1.409-1.2 2.385v5h20v-5c0-.977-.476-1.837-1.201-2.385l.15-.15c1.322-1.322 2.051-3.08 2.051-4.95v-11.514c0-1.653-1.346-3-3-3.001-.537 0-1.034.153-1.471.401-.532-.839-1.464-1.401-2.529-1.401-.395 0-.77.081-1.116.22-.345-1.275-1.501-2.22-2.884-2.22-.352 0-.686.072-1 .184v-2.184h21v5c0 1.654 1.346 3 3 3h18c1.654 0 3-1.346 3-3v-18c0-1.654-1.346-3-3-3zm-16-5c0-3.859 3.141-7 7-7s7 3.141 7 7v5h-2v-5c0-2.757-2.243-5-5-5s-5 2.243-5 5v5h-2zm10 5h-6v-5c0-1.654 1.346-3 3-3s3 1.346 3 3zm-27 46h-16v-3c0-.552.448-1 1-1h14c.552 0 1 .448 1 1zm-8-26c.552 0 1 .448 1 1v2 7h2v-7c0-.552.448-1 1-1s1 .448 1 1v.999 5.001 1h2v-1-5.001c0-.551.448-.999.999-.999.552.001 1.001.449 1.001 1.001v11.514c0 1.336-.521 2.592-1.465 3.536l-.949.949h-13.172l-.95-.949c-.931-.931-1.465-2.22-1.465-3.537v-2.423c.001-2.83-.668-5.664-1.934-8.196-.043-.087-.065-.18-.065-.277 0-.341.277-.618.618-.618 1.864 0 3.382 1.518 3.382 3.383v1.617 1h2v-1-1.617-12.383c0-.552.448-1 1-1s1 .448 1 1v6 9h2v-9c0-.552.448-1 1-1zm-1.184-6c-.414-1.161-1.514-2-2.816-2s-2.402.839-2.816 2h-4.184c-2.757 0-5-2.243-5-5s2.243-5 5-5h31v10zm43.184 7c0 .552-.448 1-1 1h-18c-.552 0-1-.448-1-1v-18c0-.552.448-1 1-1h18c.552 0 1 .448 1 1z"/><path d="m53.782 19.342c-1.411-1.146-3.258-1.588-5.065-1.208-2.356.493-4.216 2.427-4.626 4.812-.433 2.521.748 4.998 2.909 6.246v2.808c0 1.103.897 2 2 2h2c1.103 0 2-.897 2-2v-2.809c1.842-1.064 3-3.036 3-5.191 0-1.814-.809-3.513-2.218-4.658zm-2.183 8.32-.599.262v4.076h-2v-4.075l-.599-.263c-1.693-.741-2.655-2.542-2.34-4.378.269-1.559 1.528-2.871 3.064-3.193.297-.062.592-.092.882-.092.918 0 1.788.306 2.513.895.941.764 1.48 1.896 1.48 3.106 0 1.586-.942 3.023-2.401 3.662z"/><path d="m39 46h6v-6h-6zm2-4h2v2h-2z"/><path d="m39 54h6v-6h-6zm2-4h2v2h-2z"/><path d="m39 62h6v-6h-6zm2-4h2v2h-2z"/><path d="m47 46h6v-6h-6zm2-4h2v2h-2z"/><path d="m47 54h6v-6h-6zm2-4h2v2h-2z"/><path d="m47 62h6v-6h-6zm2-4h2v2h-2z"/><path d="m55 46h6v-6h-6zm2-4h2v2h-2z"/><path d="m55 54h6v-6h-6zm2-4h2v2h-2z"/><path d="m55 62h6v-6h-6zm2-4h2v2h-2z"/><path d="m9 20c-1.654 0-3 1.346-3 3s1.346 3 3 3 3-1.346 3-3-1.346-3-3-3zm0 4c-.552 0-1-.448-1-1s.448-1 1-1 1 .448 1 1-.448 1-1 1z"/><path d="m19 20c-1.654 0-3 1.346-3 3s1.346 3 3 3 3-1.346 3-3-1.346-3-3-3zm0 4c-.552 0-1-.448-1-1s.448-1 1-1 1 .448 1 1-.448 1-1 1z"/><path d="m29 20c-1.654 0-3 1.346-3 3s1.346 3 3 3 3-1.346 3-3-1.346-3-3-3zm0 4c-.552 0-1-.448-1-1s.448-1 1-1 1 .448 1 1-.448 1-1 1z"/></g></svg>