<svg height="512" viewBox="0 0 64 64" width="512" xmlns="http://www.w3.org/2000/svg"><g><path d="m46 3a1 1 0 0 0 -2 0v2h2z"/><path d="m42 60h-1a2 2 0 0 0 -2 2h12a2.005 2.005 0 0 0 -2-2z"/><path d="m30 7h-22a1 1 0 0 0 -1 1v33a1 1 0 0 0 1 1h22a1 1 0 0 0 1-1v-33a1 1 0 0 0 -1-1zm-1 32a1 1 0 0 1 -1 1h-18a1 1 0 0 1 -1-1v-29a1 1 0 0 1 1-1h18a1 1 0 0 1 1 1z"/><path d="m23 16.5a3.564 3.564 0 0 1 -2.707-1.293c-.49-.49-.731-.707-1.293-.707s-.8.217-1.293.707a3.48 3.48 0 0 1 -5.414 0c-.49-.49-.731-.707-1.293-.707v3a3.564 3.564 0 0 1 2.707 1.293c.49.49.73.707 1.293.707s.8-.217 1.293-.707a3.48 3.48 0 0 1 5.414 0c.49.49.73.707 1.293.707s.8-.217 1.293-.707a3.564 3.564 0 0 1 2.707-1.293v-3c-.563 0-.8.217-1.293.707a3.564 3.564 0 0 1 -2.707 1.293z"/><path d="m11 12.5a3.564 3.564 0 0 1 2.707 1.293c.49.49.73.707 1.293.707s.8-.217 1.293-.707a3.48 3.48 0 0 1 5.414 0c.49.49.73.707 1.293.707s.8-.217 1.293-.707a3.564 3.564 0 0 1 2.707-1.293v-1.5h-16z"/><path d="m49 21.5a3.564 3.564 0 0 1 -2.707-1.293c-.49-.49-.731-.707-1.293-.707s-.8.217-1.293.707a3.48 3.48 0 0 1 -5.414 0c-.49-.49-.731-.707-1.293-.707v3a3.564 3.564 0 0 1 2.707 1.293c.49.49.73.707 1.293.707s.8-.217 1.293-.707a3.48 3.48 0 0 1 5.414 0c.49.49.73.707 1.293.707s.8-.217 1.293-.707a3.564 3.564 0 0 1 2.707-1.293v-3c-.563 0-.8.217-1.293.707a3.564 3.564 0 0 1 -2.707 1.293z"/><path d="m44 44h2v3h-2z"/><path d="m23 21.5a3.564 3.564 0 0 1 -2.707-1.293c-.49-.49-.731-.707-1.293-.707s-.8.217-1.293.707a3.48 3.48 0 0 1 -5.414 0c-.49-.49-.731-.707-1.293-.707v3a3.564 3.564 0 0 1 2.707 1.293c.49.49.73.707 1.293.707s.8-.217 1.293-.707a3.48 3.48 0 0 1 5.414 0c.49.49.73.707 1.293.707s.8-.217 1.293-.707a3.564 3.564 0 0 1 2.707-1.293v-3c-.563 0-.8.217-1.293.707a3.564 3.564 0 0 1 -2.707 1.293z"/><path d="m49 31.5a3.564 3.564 0 0 1 -2.707-1.293c-.49-.49-.731-.707-1.293-.707s-.8.217-1.293.707a3.48 3.48 0 0 1 -5.414 0c-.49-.49-.731-.707-1.293-.707v3a3.564 3.564 0 0 1 2.707 1.293c.49.49.73.707 1.293.707s.8-.217 1.293-.707a3.48 3.48 0 0 1 5.414 0c.49.49.73.707 1.293.707s.8-.217 1.293-.707a3.564 3.564 0 0 1 2.707-1.293v-3c-.563 0-.8.217-1.293.707a3.564 3.564 0 0 1 -2.707 1.293z"/><path d="m43 53h4v5h-4z"/><path d="m49 36.5a3.564 3.564 0 0 1 -2.707-1.293c-.49-.49-.731-.707-1.293-.707s-.8.217-1.293.707a3.48 3.48 0 0 1 -5.414 0c-.49-.49-.731-.707-1.293-.707v3.5h16v-3.5c-.563 0-.8.217-1.293.707a3.564 3.564 0 0 1 -2.707 1.293z"/><path d="m43 49h4v2h-4z"/><path d="m16 60h-1a2 2 0 0 0 -2 2h12a2.005 2.005 0 0 0 -2-2z"/><path d="m20 3a1 1 0 0 0 -2 0v2h2z"/><path d="m17 53h4v5h-4z"/><path d="m23 36.5a3.564 3.564 0 0 1 -2.707-1.293c-.49-.49-.731-.707-1.293-.707s-.8.217-1.293.707a3.48 3.48 0 0 1 -5.414 0c-.49-.49-.731-.707-1.293-.707v3.5h16v-3.5c-.563 0-.8.217-1.293.707a3.564 3.564 0 0 1 -2.707 1.293z"/><path d="m23 31.5a3.564 3.564 0 0 1 -2.707-1.293c-.49-.49-.731-.707-1.293-.707s-.8.217-1.293.707a3.48 3.48 0 0 1 -5.414 0c-.49-.49-.731-.707-1.293-.707v3a3.564 3.564 0 0 1 2.707 1.293c.49.49.73.707 1.293.707s.8-.217 1.293-.707a3.48 3.48 0 0 1 5.414 0c.49.49.73.707 1.293.707s.8-.217 1.293-.707a3.564 3.564 0 0 1 2.707-1.293v-3c-.563 0-.8.217-1.293.707a3.564 3.564 0 0 1 -2.707 1.293z"/><path d="m23 26.5a3.564 3.564 0 0 1 -2.707-1.293c-.49-.49-.731-.707-1.293-.707s-.8.217-1.293.707a3.48 3.48 0 0 1 -5.414 0c-.49-.49-.731-.707-1.293-.707v3a3.564 3.564 0 0 1 2.707 1.293c.49.49.73.707 1.293.707s.8-.217 1.293-.707a3.48 3.48 0 0 1 5.414 0c.49.49.73.707 1.293.707s.8-.217 1.293-.707a3.564 3.564 0 0 1 2.707-1.293v-3c-.563 0-.8.217-1.293.707a3.564 3.564 0 0 1 -2.707 1.293z"/><path d="m17 49h4v2h-4z"/><path d="m18 44h2v3h-2z"/><path d="m49 26.5a3.564 3.564 0 0 1 -2.707-1.293c-.49-.49-.731-.707-1.293-.707s-.8.217-1.293.707a3.48 3.48 0 0 1 -5.414 0c-.49-.49-.731-.707-1.293-.707v3a3.564 3.564 0 0 1 2.707 1.293c.49.49.73.707 1.293.707s.8-.217 1.293-.707a3.48 3.48 0 0 1 5.414 0c.49.49.73.707 1.293.707s.8-.217 1.293-.707a3.564 3.564 0 0 1 2.707-1.293v-3c-.563 0-.8.217-1.293.707a3.564 3.564 0 0 1 -2.707 1.293z"/><path d="m49 16.5a3.564 3.564 0 0 1 -2.707-1.293c-.49-.49-.731-.707-1.293-.707s-.8.217-1.293.707a3.48 3.48 0 0 1 -5.414 0c-.49-.49-.731-.707-1.293-.707v3a3.564 3.564 0 0 1 2.707 1.293c.49.49.73.707 1.293.707s.8-.217 1.293-.707a3.48 3.48 0 0 1 5.414 0c.49.49.73.707 1.293.707s.8-.217 1.293-.707a3.564 3.564 0 0 1 2.707-1.293v-3c-.563 0-.8.217-1.293.707a3.564 3.564 0 0 1 -2.707 1.293z"/><path d="m56 7h-22a1 1 0 0 0 -1 1v33a1 1 0 0 0 1 1h22a1 1 0 0 0 1-1v-33a1 1 0 0 0 -1-1zm-1 32a1 1 0 0 1 -1 1h-18a1 1 0 0 1 -1-1v-29a1 1 0 0 1 1-1h18a1 1 0 0 1 1 1z"/><path d="m37 12.5a3.564 3.564 0 0 1 2.707 1.293c.49.49.73.707 1.293.707s.8-.217 1.293-.707a3.48 3.48 0 0 1 5.414 0c.49.49.73.707 1.293.707s.8-.217 1.293-.707a3.564 3.564 0 0 1 2.707-1.293v-1.5h-16z"/></g></svg>