<svg height="512" viewBox="0 0 64 64" width="512" xmlns="http://www.w3.org/2000/svg"><g id="air_conditioner-heating-machine-air_conditioning-refreshing" data-name="air conditioner-heating-machine-air conditioning-refreshing"><path d="m57 2h-50a3.009 3.009 0 0 0 -3 3v3h2v-3a1 1 0 0 1 1-1h50a1 1 0 0 1 1 1v16a1 1 0 0 1 -1 1h-3v-6a2.006 2.006 0 0 0 -2-2h-40a2.006 2.006 0 0 0 -2 2v6h-3a1 1 0 0 1 -1-1v-11h-2v11a3.009 3.009 0 0 0 3 3h50a3.009 3.009 0 0 0 3-3v-16a3.009 3.009 0 0 0 -3-3zm-5 20h-40v-2h38v-2h-38v-2h40z"/><path d="m20 52v-4h-2v1h-2.14a4.166 4.166 0 0 0 -.43-1.02l1.52-1.52.71.71 1.41-1.41-2.83-2.83-1.41 1.41.71.71-1.52 1.52a4.166 4.166 0 0 0 -1.02-.43v-2.14h1v-2h-4v2h1v2.14a4.166 4.166 0 0 0 -1.02.43l-1.52-1.52.71-.71-1.41-1.41-2.83 2.83 1.41 1.41.71-.71 1.52 1.52a4.166 4.166 0 0 0 -.43 1.02h-2.14v-1h-2v4h2v-1h2.14a4.166 4.166 0 0 0 .43 1.02l-1.52 1.52-.71-.71-1.41 1.41 2.83 2.83 1.41-1.41-.71-.71 1.52-1.52a4.166 4.166 0 0 0 1.02.43v2.14h-1v2h4v-2h-1v-2.14a4.166 4.166 0 0 0 1.02-.43l1.52 1.52-.71.71 1.41 1.41 2.83-2.83-1.41-1.41-.71.71-1.52-1.52a4.166 4.166 0 0 0 .43-1.02h2.14v1zm-8 0a2 2 0 1 1 2-2 2.006 2.006 0 0 1 -2 2z"/><path d="m39 52h-2.1a4.961 4.961 0 0 0 -.732-1.753l1.49-1.49.707.708 1.414-1.414-2.829-2.829-1.414 1.414.708.707-1.49 1.49a4.961 4.961 0 0 0 -1.754-.733v-2.1h1v-2h-4v2h1v2.1a4.961 4.961 0 0 0 -1.753.732l-1.49-1.49.707-.707-1.414-1.413-2.828 2.829 1.414 1.414.707-.708 1.49 1.49a4.969 4.969 0 0 0 -.733 1.753h-2.1v-1h-2v4h2v-1h2.1a4.969 4.969 0 0 0 .732 1.753l-1.49 1.49-.707-.708-1.414 1.414 2.828 2.829 1.414-1.414-.707-.707 1.49-1.49a4.961 4.961 0 0 0 1.754.733v2.1h-1v2h4v-2h-1v-2.1a4.961 4.961 0 0 0 1.753-.732l1.49 1.49-.708.707 1.414 1.414 2.829-2.829-1.414-1.414-.707.708-1.49-1.49a4.961 4.961 0 0 0 .733-1.754h2.1v1h2v-4h-2zm-7 4a3 3 0 1 1 3-3 3 3 0 0 1 -3 3z"/><path d="m58 49h-2.142a3.915 3.915 0 0 0 -.425-1.019l1.517-1.517.707.708 1.414-1.414-2.829-2.829-1.414 1.414.708.707-1.517 1.517a3.915 3.915 0 0 0 -1.019-.425v-2.142h1v-2h-4v2h1v2.142a3.915 3.915 0 0 0 -1.019.425l-1.517-1.517.708-.707-1.414-1.414-2.829 2.829 1.414 1.414.707-.708 1.517 1.517a3.915 3.915 0 0 0 -.425 1.019h-2.142v-1h-2v4h2v-1h2.142a3.915 3.915 0 0 0 .425 1.019l-1.517 1.517-.707-.708-1.414 1.414 2.829 2.829 1.414-1.414-.708-.707 1.517-1.517a3.915 3.915 0 0 0 1.019.425v2.142h-1v2h4v-2h-1v-2.142a3.915 3.915 0 0 0 1.019-.425l1.517 1.517-.708.707 1.414 1.414 2.829-2.829-1.414-1.414-.707.708-1.517-1.517a3.915 3.915 0 0 0 .425-1.019h2.142v1h2v-4h-2zm-6 3a2 2 0 1 1 2-2 2 2 0 0 1 -2 2z"/><path d="m36.68 35.15a2 2 0 0 0 -1.68-1.15v-6a2.006 2.006 0 0 0 -2-2h-2a2.006 2.006 0 0 0 -2 2v6a2 2 0 0 0 -1.4 3.28l2.86 3.44a2.007 2.007 0 0 0 3.08 0l2.86-3.44a1.994 1.994 0 0 0 .28-2.13zm-4.68 4.29-2.86-3.44h.86a1 1 0 0 0 1-1v-7h2v7a1 1 0 0 0 1 1h.86z"/><path d="m50.13 33.53a2.009 2.009 0 0 0 -2.02-.17 27.182 27.182 0 0 1 -2.38-5.74 2.019 2.019 0 0 0 -1.91-1.49h-.04a1.944 1.944 0 0 0 -1.87 1.36 12.162 12.162 0 0 0 1.02 8.86 2.007 2.007 0 0 0 .4 3.56l4.2 1.54a1.837 1.837 0 0 0 .69.13 1.976 1.976 0 0 0 1-.27 2.022 2.022 0 0 0 .97-1.39l.76-4.41a1.959 1.959 0 0 0 -.82-1.98zm-1.91 6.05-4.2-1.55.75-.43a.949.949 0 0 0 .46-.61.969.969 0 0 0 -.1-.76c-1.55-2.7-2.06-5.81-1.33-8.09a30.382 30.382 0 0 0 3.07 7.09 1 1 0 0 0 1.36.37l.75-.43z"/><path d="m20.52 30.87a7.7 7.7 0 0 0 -.33-2.77 29.8 29.8 0 0 1 -3.06 7.13.987.987 0 0 1 -1.36.37l-.75-.43.76 4.41 4.2-1.55-.75-.43a.949.949 0 0 1 -.46-.61.969.969 0 0 1 .1-.76 12.7 12.7 0 0 0 1.38-3.48l1.95.45a13.824 13.824 0 0 1 -1.13 3.15 2.007 2.007 0 0 1 -.4 3.56l-4.2 1.54a1.837 1.837 0 0 1 -.69.13 1.976 1.976 0 0 1 -1-.27 2.022 2.022 0 0 1 -.97-1.39l-.76-4.41a1.959 1.959 0 0 1 .82-1.98 2.009 2.009 0 0 1 2.02-.17 27.182 27.182 0 0 0 2.38-5.74 2.01 2.01 0 0 1 1.91-1.49 1.9 1.9 0 0 1 1.91 1.36 10.029 10.029 0 0 1 .43 3.47z"/><path d="m10 6h2v2h-2z"/><path d="m14 6h2v2h-2z"/><path d="m18 6h16v2h-16z"/></g></svg>