<?xml version="1.0"?>
<svg xmlns="http://www.w3.org/2000/svg" id="Layer_1" data-name="Layer 1" viewBox="0 0 64 64"><path d="M6.79,45.98a.642.642,0,0,0-.181.06.77.77,0,0,0-.179.09,1.576,1.576,0,0,0-.15.12,1.052,1.052,0,0,0-.29.71.615.615,0,0,0,.02.19,1.055,1.055,0,0,0,.05.19.95.95,0,0,0,.1.17.9.9,0,0,0,.12.16l.15.12a.77.77,0,0,0,.179.09.642.642,0,0,0,.181.06,1.342,1.342,0,0,0,.2.02,1,1,0,0,0,.7-.29.91.91,0,0,0,.13-.16.559.559,0,0,0,.091-.17.63.63,0,0,0,.06-.19,1.361,1.361,0,0,0,.02-.19,1.014,1.014,0,0,0-.3-.71A.988.988,0,0,0,6.79,45.98Z"/><path d="M10.689,46.13a.54.54,0,0,0-.169-.09.646.646,0,0,0-.18-.06.955.955,0,0,0-.58.06,1.155,1.155,0,0,0-.33.21,1.032,1.032,0,0,0-.21.33.943.943,0,0,0,0,.76,1.155,1.155,0,0,0,.21.33,1.052,1.052,0,0,0,.71.29,1.355,1.355,0,0,0,.2-.02.646.646,0,0,0,.18-.06.54.54,0,0,0,.169-.09c.061-.04.111-.08.161-.12a1.014,1.014,0,0,0,0-1.42A.924.924,0,0,0,10.689,46.13Z"/><path d="M14.22,46.58a1.8,1.8,0,0,0-.1-.18,1.576,1.576,0,0,0-.12-.15,1.712,1.712,0,0,0-.15-.12.776.776,0,0,0-.18-.09.646.646,0,0,0-.18-.06.956.956,0,0,0-.58.06,1.155,1.155,0,0,0-.33.21l-.12.15a.757.757,0,0,0-.09.18.606.606,0,0,0-.06.18,1.355,1.355,0,0,0-.02.2,1.047,1.047,0,0,0,.29.71,1.155,1.155,0,0,0,.33.21,1,1,0,0,0,.38.08,1.369,1.369,0,0,0,.2-.02.646.646,0,0,0,.18-.06.776.776,0,0,0,.18-.09l.15-.12a1.011,1.011,0,0,0,.29-.71.68.68,0,0,0-.02-.2A1.209,1.209,0,0,0,14.22,46.58Z"/><path d="M17,46.13a.613.613,0,0,0-.181-.09.62.62,0,0,0-.179-.06.955.955,0,0,0-.58.06.977.977,0,0,0-.32.21.988.988,0,0,0,0,1.42.977.977,0,0,0,.32.21.994.994,0,0,0,.379.08,1.369,1.369,0,0,0,.2-.02.62.62,0,0,0,.179-.06A.613.613,0,0,0,17,47.79l.149-.12a1.014,1.014,0,0,0,0-1.42A1.451,1.451,0,0,0,17,46.13Z"/><path d="M20.149,46.13a.666.666,0,0,0-.17-.09,1,1,0,0,0-1.389.92,1.038,1.038,0,0,0,.3.71.936.936,0,0,0,.15.12.545.545,0,0,0,.17.09.606.606,0,0,0,.189.06,1.251,1.251,0,0,0,.191.02,1.078,1.078,0,0,0,.389-.08.982.982,0,0,0,.321-.21.99.99,0,0,0,0-1.42A1.468,1.468,0,0,0,20.149,46.13Z"/><path d="M47.635,45.959H43.3a1,1,0,0,0,0,2h4.336a1,1,0,0,0,0-2Z"/><path d="M54.249,9.112H48.016a1,1,0,0,0-1,1v9.554a4.321,4.321,0,0,0-1.905-.449,3.681,3.681,0,0,0-3.906,3.392A3.681,3.681,0,0,0,45.111,26a3.681,3.681,0,0,0,3.907-3.393l0-.016V15.856h5.233a1,1,0,0,0,1-1V10.112A1,1,0,0,0,54.249,9.112ZM45.111,24c-1.033,0-1.906-.638-1.906-1.393s.873-1.392,1.906-1.392,1.894.63,1.905,1.379v.017C47.014,23.367,46.143,24,45.111,24Zm8.138-10.146H49.016V11.112h4.233Z"/><path d="M48.227,3.784A13.794,13.794,0,0,0,34.76,14.68H3a1,1,0,0,0-1,1V49.905a1,1,0,0,0,1,1H21.658v2.743h-7.21a1,1,0,0,0-1,1v4.568a1,1,0,0,0,1,1H43.53a1,1,0,0,0,1-1V54.648a1,1,0,0,0-1-1H36.32V50.905H54.979a1,1,0,0,0,1-1V28.932A13.767,13.767,0,0,0,48.227,3.784Zm-5.7,54.432H15.448V55.648H42.53ZM23.658,53.648v-2.74H34.32v2.74ZM4,48.905V44.954H53.979v3.951Zm49.979-5.951H4V16.68H34.5c-.019.291-.045.581-.045.877a13.745,13.745,0,0,0,19.526,12.5ZM48.227,29.33A11.773,11.773,0,1,1,60,17.557,11.786,11.786,0,0,1,48.227,29.33Z"/><path d="M24.128,28.387A2.034,2.034,0,0,0,23.1,26.608h0l-11.264-6.5a2.053,2.053,0,0,0-3.081,1.779V34.889a2.049,2.049,0,0,0,3.081,1.779l11.264-6.5A2.033,2.033,0,0,0,24.128,28.387Zm-13.371,6.5.081-13.052L12.67,22.9V33.8ZM22.1,28.433,14.67,32.662V24.049L22.1,28.34l.5-.866Z"/><path d="M22.839,33.952a1,1,0,0,0,1,1H29.21a1,1,0,0,0,0-2H23.839A1,1,0,0,0,22.839,33.952Z"/><path d="M37.193,36.436H23.839a1,1,0,0,0,0,2H37.193a1,1,0,0,0,0-2Z"/><path d="M44.451,36.436h-3.1a1,1,0,0,0,0,2h3.1a1,1,0,0,0,0-2Z"/><path d="M33.274,34.952h8.931a1,1,0,0,0,0-2H33.274a1,1,0,0,0,0,2Z"/></svg>
