<svg id="Layer_1" enable-background="new 0 0 512 512" height="512" viewBox="0 0 512 512" width="512" xmlns="http://www.w3.org/2000/svg"><path d="m498.693 142.1-154.691-55.026v-71.083c0-4.423-3.585-8.008-8.008-8.008h-159.988c-4.423 0-8.008 3.585-8.008 8.008v45.652h-152.008c-4.423 0-8.008 3.585-8.008 8.008v339.874c0 4.423 3.585 8.008 8.008 8.008h137.296c1.795 4.46 3.872 8.81 6.245 13.022l-6.969 15.653c-1.348 3.026-.692 6.571 1.649 8.916l22.904 22.932c2.344 2.346 5.89 3.005 8.919 1.658l15.682-6.973c7.739 4.359 15.931 7.758 24.446 10.142l6.148 15.998c1.189 3.094 4.161 5.136 7.475 5.136h32.428c3.314 0 6.286-2.042 7.475-5.135l6.148-15.999c8.516-2.384 16.708-5.782 24.446-10.142l15.682 6.973c3.03 1.348 6.577.688 8.919-1.658l22.904-22.932c2.34-2.344 2.997-5.886 1.651-8.912l-6.97-15.678c2.371-4.201 4.448-8.545 6.243-13.002h137.299c4.423 0 8.008-3.585 8.008-8.008v-259.88c-.001-3.388-2.133-6.409-5.325-7.544zm-170.707-118.101v248.259c-.682.106-1.36.284-2.011.573l-15.687 6.951c-7.711-4.339-15.905-7.73-24.451-10.118l-6.147-15.998c-1.189-3.093-4.161-5.135-7.475-5.135h-32.428c-3.314 0-6.286 2.042-7.475 5.136l-6.147 15.997c-8.545 2.388-16.74 5.779-24.451 10.118l-15.687-6.951c-.652-.289-1.329-.466-2.011-.573v-248.259zm-303.988 53.66h144v205.951l-13.783 13.783c-2.343 2.343-3.001 5.888-1.655 8.915l6.973 15.683c-2.626 4.661-4.896 9.49-6.813 14.452v-26.414c0-4.423-3.585-8.008-8.008-8.008h-37.162c-4.423 0-8.008 3.585-8.008 8.008v37.162c0 4.423 3.585 8.008 8.008 8.008h22.377c-1.049 1.368-1.67 3.058-1.67 4.861v32.4c0 3.311 2.037 6.28 5.126 7.472l4.109 1.585h-113.494zm112.706 261.524h-21.146v-21.146h21.146zm211.4 59.072c-2.325 9.744-6.175 19.018-11.443 27.561-1.387 2.251-1.575 5.041-.501 7.456l6.413 14.424-15.13 15.147-14.416-6.409c-2.413-1.072-5.199-.888-7.447.495-8.581 5.274-17.866 9.126-27.599 11.449-2.568.613-4.669 2.452-5.616 4.916l-5.652 14.707h-21.425l-5.651-14.706c-.947-2.465-3.048-4.304-5.616-4.917-9.732-2.323-19.019-6.175-27.6-11.449-2.249-1.383-5.035-1.567-7.447-.495l-14.416 6.409-15.127-15.146 6.408-14.394c1.074-2.412.89-5.2-.493-7.45-5.275-8.582-9.126-17.867-11.449-27.599-.612-2.565-2.447-4.664-4.907-5.613l-14.717-5.676v-21.404l14.708-5.652c2.464-.946 4.304-3.048 4.917-5.616 2.323-9.732 6.174-19.019 11.449-27.599 1.382-2.249 1.567-5.034.495-7.446l-6.411-14.42 15.13-15.13 14.424 6.392c2.41 1.068 5.192.881 7.438-.499 8.531-5.244 17.816-9.087 27.599-11.421 2.568-.612 4.669-2.452 5.617-4.917l5.651-14.707h21.425l5.652 14.708c.947 2.464 3.048 4.304 5.617 4.916 9.782 2.334 19.068 6.177 27.598 11.421 2.246 1.379 5.027 1.567 7.438.499l14.424-6.392 15.13 15.13-6.411 14.42c-1.074 2.415-.886 5.206.501 7.456 5.26 8.53 9.11 17.812 11.443 27.589.613 2.568 2.452 4.67 4.917 5.616l14.708 5.652v21.404l-14.717 5.676c-2.464.95-4.299 3.049-4.911 5.614zm27.192-59.072v-21.146h21.146v21.146zm112.706 62.334h-113.494l4.11-1.585c3.089-1.191 5.126-4.161 5.126-7.472v-32.4c0-1.803-.62-3.493-1.67-4.861h22.377c4.423 0 8.008-3.585 8.008-8.008v-37.162c0-4.423-3.585-8.008-8.008-8.008h-37.162c-4.423 0-8.008 3.585-8.008 8.008v26.401c-1.918-4.969-4.188-9.796-6.811-14.444l6.97-15.678c1.346-3.027.688-6.572-1.655-8.915l-13.783-13.783v-179.537l144 51.223zm-440.717-245.594h97.427c4.423 0 8.008-3.585 8.008-8.008v-35.773c0-4.423-3.585-8.008-8.008-8.008h-97.427c-4.423 0-8.008 3.585-8.008 8.008v35.773c0 4.423 3.585 8.008 8.008 8.008zm8.008-35.773h81.411v19.757h-81.411zm307.375 97.455h106.668c4.423 0 8.008-3.585 8.008-8.008v-39.146c0-4.423-3.585-8.008-8.008-8.008h-106.668c-4.423 0-8.008 3.585-8.008 8.008v39.146c0 4.423 3.585 8.008 8.008 8.008zm8.008-39.147h90.652v23.131h-90.652zm-163.403-81.326h97.455c4.423 0 8.008-3.585 8.008-8.008v-35.772c0-4.423-3.585-8.008-8.008-8.008h-97.455c-4.423 0-8.008 3.585-8.008 8.008v35.773c0 4.422 3.585 8.007 8.008 8.007zm8.008-35.773h81.439v19.757h-81.439zm-8.008 119.169h37.162c4.423 0 8.008-3.585 8.008-8.008v-37.162c0-4.423-3.585-8.008-8.008-8.008h-37.162c-4.423 0-8.008 3.585-8.008 8.008v37.162c0 4.423 3.585 8.008 8.008 8.008zm8.008-37.162h21.146v21.146h-21.146zm89.447-16.016h-37.163c-4.423 0-8.008 3.585-8.008 8.008v37.162c0 4.423 3.585 8.008 8.008 8.008h37.163c4.423 0 8.008-3.585 8.008-8.008v-37.162c0-4.423-3.585-8.008-8.008-8.008zm-8.008 37.162h-21.147v-21.146h21.147zm-89.447 76.309h37.162c4.423 0 8.008-3.585 8.008-8.008v-37.162c0-4.423-3.585-8.008-8.008-8.008h-37.162c-4.423 0-8.008 3.585-8.008 8.008v37.162c0 4.423 3.585 8.008 8.008 8.008zm8.008-37.162h21.146v21.146h-21.146zm89.447-16.016h-37.163c-4.423 0-8.008 3.585-8.008 8.008v37.162c0 4.423 3.585 8.008 8.008 8.008h37.163c4.423 0 8.008-3.585 8.008-8.008v-37.162c0-4.423-3.585-8.008-8.008-8.008zm-8.008 37.162h-21.147v-21.146h21.147zm107.73 16.923h-37.162c-4.423 0-8.008 3.585-8.008 8.008v37.162c0 4.423 3.585 8.008 8.008 8.008h37.162c4.423 0 8.008-3.585 8.008-8.008v-37.162c0-4.423-3.585-8.008-8.008-8.008zm-8.007 37.162h-21.146v-21.146h21.146zm68.272-37.162h-37.162c-4.423 0-8.008 3.585-8.008 8.008v37.162c0 4.423 3.585 8.008 8.008 8.008h37.162c4.423 0 8.008-3.585 8.008-8.008v-37.162c0-4.423-3.585-8.008-8.008-8.008zm-8.008 37.162h-21.146v-21.146h21.146zm8.008 23.131h-37.162c-4.423 0-8.008 3.585-8.008 8.008v37.162c0 4.423 3.585 8.008 8.008 8.008h37.162c4.423 0 8.008-3.585 8.008-8.008v-37.162c0-4.423-3.585-8.008-8.008-8.008zm-8.008 37.162h-21.146v-21.146h21.146zm-372.259-157.748h-37.163c-4.423 0-8.008 3.585-8.008 8.008v37.162c0 4.423 3.585 8.008 8.008 8.008h37.163c4.423 0 8.008-3.585 8.008-8.008v-37.162c-.001-4.423-3.586-8.008-8.008-8.008zm-8.008 37.162h-21.147v-21.146h21.147zm68.272-37.162h-37.162c-4.423 0-8.008 3.585-8.008 8.008v37.162c0 4.423 3.585 8.008 8.008 8.008h37.162c4.423 0 8.008-3.585 8.008-8.008v-37.162c-.001-4.423-3.585-8.008-8.008-8.008zm-8.008 37.162h-21.146v-21.146h21.146zm-52.256 23.131h-37.163c-4.423 0-8.008 3.585-8.008 8.008v37.162c0 4.423 3.585 8.008 8.008 8.008h37.163c4.423 0 8.008-3.585 8.008-8.008v-37.162c-.001-4.423-3.586-8.008-8.008-8.008zm-8.008 37.162h-21.147v-21.146h21.147zm68.272-37.162h-37.162c-4.423 0-8.008 3.585-8.008 8.008v37.162c0 4.423 3.585 8.008 8.008 8.008h37.162c4.423 0 8.008-3.585 8.008-8.008v-37.162c-.001-4.423-3.585-8.008-8.008-8.008zm-8.008 37.162h-21.146v-21.146h21.146zm-52.256 23.131h-37.163c-4.423 0-8.008 3.585-8.008 8.008v37.162c0 4.423 3.585 8.008 8.008 8.008h37.163c4.423 0 8.008-3.585 8.008-8.008v-37.162c-.001-4.423-3.586-8.008-8.008-8.008zm-8.008 37.162h-21.147v-21.146h21.147zm179.56-27.439c-35.583 0-64.531 28.948-64.531 64.53 0 35.583 28.948 64.531 64.531 64.531 35.582 0 64.53-28.948 64.53-64.531.001-35.582-28.948-64.53-64.53-64.53zm0 113.046c-26.751 0-48.515-21.764-48.515-48.516 0-26.751 21.764-48.515 48.515-48.515s48.515 21.764 48.515 48.515c0 26.752-21.764 48.516-48.515 48.516z"/></svg>