<svg enable-background="new 0 0 512 512" viewBox="0 0 512 512" xmlns="http://www.w3.org/2000/svg"><g id="_x31_2_Seat"><g><path d="m65.808 418.325h-32.926c-14.78 0-26.804 12.024-26.804 26.804 0 14.778 12.024 26.802 26.804 26.802h446.239c14.778 0 26.802-12.024 26.802-26.802 0-14.78-12.024-26.804-26.802-26.804h-32.929c-1.268-6.884-5.15-12.846-10.577-16.849v-40.691h39.826c6.817 0 12.364-5.546 12.364-12.364v-3.946c0-8.837-5.413-16.427-13.095-19.647 1.527-10.967 1.848-22.562.97-34.737h3.442c14.778 0 26.802-12.024 26.802-26.802 0-14.78-12.024-26.804-26.802-26.804h-13.866c-2.862-9.34-10.96-14.579-19.492-14.579h-52.278c-8.544 0-16.634 5.253-19.492 14.579h-9.611c-1.269-6.884-5.151-12.846-10.579-16.848v-40.692h39.826c6.819 0 12.366-5.546 12.366-12.364v-3.946c0-8.838-5.414-16.428-13.097-19.647 3.651-26.19.506-55.943-9.529-88.605-2.634-8.564-10.437-14.316-19.417-14.316h-52.275c-8.985 0-16.788 5.755-19.418 14.316-10.035 32.66-13.18 62.413-9.529 88.605-7.683 3.219-13.098 10.809-13.098 19.647v3.946c0 6.817 5.546 12.364 12.366 12.364h39.823v40.69c-5.426 4.002-9.308 9.965-10.577 16.849h-9.613c-2.862-9.34-10.96-14.579-19.492-14.579h-52.275c-8.543 0-16.633 5.247-19.492 14.579h-9.613c-1.269-6.883-5.15-12.844-10.577-16.846v-40.693h39.823c6.819 0 12.366-5.546 12.366-12.364v-3.946c0-8.838-5.414-16.428-13.097-19.647 3.651-26.19.506-55.942-9.529-88.603-2.63-8.564-10.433-14.318-19.417-14.318h-52.275c-8.985 0-16.788 5.755-19.417 14.316-10.035 32.66-13.179 62.413-9.529 88.605-7.683 3.219-13.098 10.809-13.098 19.647v3.946c0 6.817 5.546 12.364 12.366 12.364h39.826v40.688c-5.428 4.002-9.31 9.965-10.579 16.851h-9.614c-2.842-9.284-10.902-14.579-19.491-14.579h-52.278c-8.985 0-16.788 5.755-19.417 14.316-.027.089-.047.174-.074.263h-13.867c-14.78 0-26.804 12.024-26.804 26.804 0 14.778 12.024 26.802 26.804 26.802h3.441c-.878 12.175-.557 23.77.971 34.736-7.683 3.219-13.098 10.809-13.098 19.647v3.946c0 6.817 5.546 12.364 12.366 12.364h39.823v40.688c-5.427 4.004-9.309 9.967-10.577 16.854zm26.563-12.338c7.803 0 14.414 5.212 16.532 12.337h-33.052c2.116-7.125 8.722-12.337 16.52-12.337zm55.822-45.202c6.819 0 12.366-5.546 12.366-12.364v-3.946c0-8.838-5.415-16.428-13.098-19.647 1.528-10.966 1.849-22.561.971-34.736h51.512c-.878 12.174-.557 23.769.971 34.737-7.682 3.22-13.095 10.809-13.095 19.647v3.946c0 6.817 5.546 12.364 12.366 12.364h39.823v40.688c-5.427 4.002-9.309 9.966-10.577 16.852h-110.485c-1.268-6.885-5.151-12.848-10.579-16.85v-40.689h39.825zm216.346-35.956c-7.682 3.22-13.095 10.809-13.095 19.647v3.946c0 6.817 5.547 12.364 12.364 12.364h39.826v40.686c-5.427 4.002-9.309 9.966-10.577 16.853h-110.487c-1.268-6.885-5.151-12.848-10.579-16.85v-40.689h39.826c6.817 0 12.364-5.546 12.364-12.364v-3.946c0-8.837-5.413-16.427-13.095-19.647 1.527-10.967 1.848-22.562.97-34.737h51.514c-.879 12.175-.558 23.77.969 34.737zm-125.064 93.496c2.116-7.125 8.722-12.337 16.52-12.337 7.803 0 14.414 5.212 16.532 12.337zm22.715-21.394c-4.204-.99-8.175-.992-12.38-.002v-36.144h12.38zm52.189-52.455v3.946c0 1.414-1.149 2.563-2.563 2.563-41.282 0-74.248 0-111.631 0-1.414 0-2.565-1.149-2.565-2.563v-3.946c0-6.339 5.159-11.497 11.497-11.497h93.764c6.339-.001 11.498 5.158 11.498 11.497zm181.742 100.653c0 9.375-7.626 17.001-17.001 17.001h-446.238c-9.375 0-17.003-7.626-17.003-17.001s7.628-17.003 17.003-17.003c149.065.009 422.368 0 446.239 0 9.375-.001 17 7.628 17 17.003zm-93.022-26.804c2.116-7.125 8.719-12.337 16.518-12.337 7.803 0 14.414 5.212 16.532 12.337zm22.715-21.394c-4.04-.953-8.015-1.031-12.38-.003v-36.143h12.38zm52.189-48.509c0 1.414-1.149 2.563-2.563 2.563-41.283 0-74.25 0-111.633 0-1.414 0-2.563-1.149-2.563-2.563v-3.946c0-6.339 5.159-11.497 11.497-11.497h93.764c6.339 0 11.497 5.159 11.497 11.497v3.946zm1.118-102.134c9.375 0 17.001 7.628 17.001 17.003s-7.626 17.001-17.001 17.001h-4.393c-1.325-10.921-3.54-22.258-6.698-34.004zm-85.636-14.58h52.278c4.652 0 8.688 2.972 10.047 7.396 9.569 31.133 12.699 59.391 9.325 84.073h-91.022c-3.374-24.682-.244-52.94 9.325-84.073 1.359-4.424 5.395-7.396 10.047-7.396zm-91.857-174.444c1.357-4.422 5.396-7.394 10.047-7.394h52.275c4.649 0 8.688 2.972 10.047 7.396 9.569 31.14 12.701 59.396 9.325 84.073h-91.019c-3.376-24.678-.244-52.935 9.325-84.075zm-22.195 109.32v-3.946c0-6.339 5.159-11.497 11.497-11.497h93.766c6.339 0 11.497 5.159 11.497 11.497v3.946c0 1.414-1.151 2.563-2.565 2.563-41.282 0-74.248 0-111.631 0-1.413-.001-2.564-1.149-2.564-2.563zm52.189 12.363h12.38v36.148c-4.204-.99-8.175-.992-12.38-.002zm6.185 45.205c7.803 0 14.411 5.21 16.531 12.335h-33.051c2.119-7.125 8.722-12.335 16.52-12.335zm33.411 22.136c-3.158 11.746-5.373 23.083-6.698 34.004h-53.416c-1.325-10.921-3.54-22.258-6.698-34.004 4.981 0 70.773.005 66.812 0zm-141.354-14.58h52.275c4.652 0 8.688 2.972 10.047 7.396 9.569 31.133 12.699 59.391 9.325 84.073h-91.022c-3.374-24.684-.242-52.943 9.327-84.076 1.357-4.421 5.396-7.393 10.048-7.393zm-91.86-174.444c1.357-4.422 5.396-7.394 10.047-7.394h52.275c4.652 0 8.691 2.972 10.047 7.396 9.569 31.14 12.701 59.396 9.325 84.073h-91.018c-3.377-24.678-.244-52.935 9.324-84.075zm-22.195 109.32v-3.946c0-6.339 5.159-11.497 11.497-11.497h93.766c6.339 0 11.497 5.159 11.497 11.497v3.946c0 1.414-1.151 2.563-2.565 2.563-41.282 0-74.248 0-111.631 0-1.413-.001-2.564-1.149-2.564-2.563zm52.191 12.363h12.38v36.148c-4.04-.953-8.015-1.031-12.38-.003zm6.183 45.205c7.803 0 14.411 5.21 16.531 12.335h-33.051c2.119-7.125 8.722-12.335 16.52-12.335zm33.413 22.136c-3.159 11.746-5.375 23.083-6.7 34.004h-53.414c-1.325-10.921-3.541-22.257-6.7-34.004 4.981 0 70.775.005 66.814 0zm-141.356-14.58h52.275c4.652 0 8.691 2.972 10.047 7.396 9.569 31.137 12.701 59.394 9.325 84.073h-91.019c-3.376-24.679-.244-52.936 9.325-84.076 1.356-4.421 5.395-7.393 10.047-7.393zm-33.358 48.584c-9.375 0-17.003-7.626-17.003-17.001s7.628-17.003 17.003-17.003h11.091c-3.158 11.747-5.374 23.083-6.699 34.004zm1.115 68.13v-3.946c0-6.339 5.159-11.497 11.497-11.497h93.766c6.339 0 11.497 5.159 11.497 11.497v3.946c0 1.414-1.151 2.563-2.565 2.563-41.282 0-74.248 0-111.631 0-1.413-.001-2.564-1.149-2.564-2.563zm52.189 12.363h12.38v36.146c-4.204-.99-8.175-.992-12.38-.002z"/></g></g><g id="Layer_1"/></svg>