<?xml version="1.0" encoding="iso-8859-1"?>
<!-- Generator: Adobe Illustrator 19.0.0, SVG Export Plug-In . SVG Version: 6.00 Build 0)  -->
<svg version="1.1" id="Capa_1" xmlns="http://www.w3.org/2000/svg" xmlns:xlink="http://www.w3.org/1999/xlink" x="0px" y="0px"
	 viewBox="0 0 512.005 512.005" style="enable-background:new 0 0 512.005 512.005;" xml:space="preserve">
<g>
	<g>
		<g>
			<polygon points="255.299,294.245 255.299,294.245 255.295,294.245 			"/>
			<path d="M123.21,330.205C123.172,330.216,123.155,330.222,123.21,330.205L123.21,330.205z"/>
			<path d="M437.433,463.385l-10.152-50.983c-0.807-4.064-4.751-6.702-8.819-5.897c-4.064,0.807-6.704,4.755-5.897,8.819
				l9.021,45.309H371.96v-45.658c0-4.144-3.358-7.502-7.502-7.502s-7.502,3.358-7.502,7.502c0,15.243,0,65.879,0,82.021h-84.295
				l23.009-25.685c4.149-4.631,5.605-11.203,3.8-17.151l-24.045-79.271l4.574-6.572c7.266,1.484,14.419-1.748,17.985-6.91
				l26.303-37.874c58.818,20.779,48.477,17.261,56.466,19.624c4.158,1.586,7.017,3.372,10.165,5.698l-0.001,0.001
				c11.642,9.597,11.982,18.388,14.81,32.129c0.808,4.064,4.757,6.705,8.821,5.893c4.064-0.809,6.702-4.758,5.894-8.821
				c-2.108-10.575-2.639-14.401-4.688-19.809c-4.447-11.759-13.34-20.646-20.826-24.805c-6.735-4.066-10.936-4.97-15.106-6.206
				c-0.395-0.139-6.932-2.444-54.696-19.283l-20.095-17.03v-10.497c0.293-0.289,42.462-22.591,47.92-74.444
				c22.607,1.048,38.503-20.363,29.388-39.422v-22.618c11.3-0.325,20.399-9.597,20.399-20.974c0-11.582-9.423-21.005-21.005-21.005
				h-5.721c-0.071-0.159-8.986-58.63-64.814-86.286C307.398,1.232,290.194-4.753,278.273,4.26
				c-14.984-2.899-30.863-3.069-46.479-0.164c-11.76-8.655-28.426-2.934-32.542,10.955c-0.133,0.067-0.475,0.228-0.811,0.399
				l0.47,0.924c-0.01,0.042-0.023,0.082-0.032,0.124l-0.537-1c-1.003,0.71-29.234,13.011-49.038,45.195
				c-12.187,19.691-14.639,36.168-16.138,41.273h-4.611c-11.582,0-21.005,9.423-21.005,21.005s9.423,21.005,21.005,21.005h1.111
				v17.93c-14.245,18.982,1.256,45.253,26.559,44.079c3.273,31.342,21.885,60.161,50.722,76.06v9.565l-20.656,16.577
				c-55.736,19.626-62.564,21.853-63.08,22.016c0.09-0.027,0.291-0.08-0.109,0.097c-0.001,0.001-0.002,0.001-0.003,0.002
				c-8.906,3.735-18.035,11.171-23.634,21.057c-5.573,9.773-4.313,8.694-24.892,112.027c-5.716,3.405-9.566,9.63-9.566,16.753
				v12.357c0,10.755,8.75,19.505,19.505,19.505c11.169,0,77.68,0,87.952,0c4.144,0,7.502-3.358,7.502-7.502
				c0-4.144-3.358-7.502-7.502-7.502h-17.413c0-19.843,0-67.769,0-82.021c0-4.144-3.358-7.502-7.502-7.502s-7.502,3.358-7.502,7.502
				v45.658H90.419c19.472-97.673,17.998-94.355,22.103-101.882c1.789-3.158,4.08-6.031,7.091-8.663
				c0.174-0.145,1.383-1.151,1.284-1.069v0.001c6.72-5.142,10.58-5.876,15.678-7.432c3.819-1.091,49.423-17.423,50.465-17.792
				c27.302,39.308,26.097,37.592,26.324,37.893c4.452,5.818,11.649,8.042,18.205,6.537l4.856,6.738l-24.024,79.2
				c-1.803,5.948-0.347,12.52,3.801,17.151l23.009,25.684h-31.74c-4.144,0-7.502,3.358-7.502,7.502c0,4.144,3.358,7.502,7.502,7.502
				c9.623,0,210.246,0,220.025,0c10.755,0,19.505-8.75,19.505-19.505v-12.357C446.999,473.015,443.149,466.79,437.433,463.385z
				 M379.82,327.238c-0.001,0-0.001,0-0.002-0.001c-0.222-0.078-0.321-0.113-0.348-0.123
				C379.515,327.13,379.748,327.212,379.82,327.238z M140.044,475.637v21.359H84.509c-2.44,0-4.501-2.062-4.501-4.501v-12.357
				c0-2.486,2.141-4.501,4.501-4.501H140.044z M311.309,315.916l-25.521,36.749c-0.715,0.861-1.633,1.003-2.127,1.008
				c-1.499,0.009-0.743,0.885-17.604-18.169c1.249-1.216,28.258-27.509,31.818-30.975L311.309,315.916z M290.025,287.705v3.529
				c-10.666,10.383-23.581,22.956-34.379,33.468l-33.698-32.668v-3.302c18.373,6.391,32.504,5.377,33.35,5.513
				c0.105-0.001,0.581-0.004,0.481-0.003c16.512-0.201,27.175-4.251,28.322-4.476l0.113-0.037v0.001
				C284.996,289.47,286.99,288.869,290.025,287.705z M267.682,359.75l-4.409,6.335H248.52l-4.775-6.625
				c0.911-1.005,10.456-11.528,11.889-13.107C256.611,347.44,266.56,358.502,267.682,359.75z M353.527,190.992v-26.19
				c8.074-0.432,16.395,5.045,16.395,13.088C369.921,185.698,362.095,191.446,353.527,190.992z M353.526,149.773v-5.797h13.807
				v8.406C363.189,150.6,358.385,149.637,353.526,149.773z M311.907,33.323c24.204,14.696,42.173,39.448,48.807,68.643h-48.807
				V33.323z M270.121,18.099c-0.413,2.965-0.139,2.608-0.225,23.881c0,4.144,3.358,7.502,7.502,7.502
				c4.144,0,7.502-3.358,7.502-7.502V21.006c0-3.31,2.692-6.002,6.002-6.002c3.245,0,5.89,2.59,5.992,5.81
				c0.015,0.848,0.008,64.41,0.01,81.151H284.9V76.989c0-4.144-3.358-7.502-7.502-7.502c-4.144,0-7.502,3.358-7.502,7.502v24.976
				H240.39c-0.185-78.068,0.291-80.54-0.226-84.021C243.237,17.537,260.022,16.66,270.121,18.099z M213.41,20.475
				c0.551-6.237,10.71-7.48,11.886-0.465c0.14,0.832,0.075,57.727,0.09,81.956h-12.003C213.391,78.969,213.408,20.512,213.41,20.475
				z M198.379,32.655v69.311h-49.918C156.032,70.17,175.058,46.495,198.379,32.655z M155.651,190.992
				c-16.521,0.872-22.978-18.343-7.853-24.828c2.382-1.015,5.024-1.513,7.853-1.361V190.992z M144.669,151.328v-7.352h10.981v5.797
				C152.109,149.665,148.292,150.159,144.669,151.328z M128.555,128.972c-3.31,0-6.002-2.693-6.002-6.002
				c0-3.31,2.692-6.002,6.002-6.002c28.968,0,223.576,0,253.177,0c3.31,0,6.002,2.692,6.002,6.002c0,3.31-2.692,6.002-6.002,6.002
				C355.449,128.972,157.711,128.972,128.555,128.972z M179.37,232.605c-11.393-23.44-8.716-37.071-8.716-88.629h167.869
				c-0.218,59.124,0.358,57.955-1.788,68.577C323.247,284.309,219.855,308.397,179.37,232.605z M229.422,352.923
				c-1.092,1.044-2.992,1.037-4.065-0.257l-25.236-36.339l13.86-11.123c7.329,7.106,23.897,23.168,31.246,30.292
				C227.892,354.612,229.542,352.809,229.422,352.923z M227.376,461.302c-2.088-2.332-0.794-0.347,22.868-80.214h11.384
				l23.485,77.426v0.001c0.878,2.894-0.403,1.762-29.178,34.665L227.376,461.302z M431.995,492.495c0,2.44-2.062,4.501-4.501,4.501
				H371.96v-21.359c59.287,0.037,55.428-0.077,56.297,0.08c2.123,0.393,3.738,2.27,3.738,4.421V492.495z"/>
		</g>
	</g>
</g>
<g>
	<g>
		<path d="M336.023,407.474h-28.007c-4.144,0-7.502,3.358-7.502,7.502c0,4.144,3.358,7.502,7.502,7.502h28.007
			c4.144,0,7.502-3.358,7.502-7.502C343.525,410.832,340.167,407.474,336.023,407.474z"/>
	</g>
</g>
<g>
</g>
<g>
</g>
<g>
</g>
<g>
</g>
<g>
</g>
<g>
</g>
<g>
</g>
<g>
</g>
<g>
</g>
<g>
</g>
<g>
</g>
<g>
</g>
<g>
</g>
<g>
</g>
<g>
</g>
</svg>
