<?xml version="1.0" encoding="iso-8859-1"?>
<!-- Generator: Adobe Illustrator 19.0.0, SVG Export Plug-In . SVG Version: 6.00 Build 0)  -->
<svg version="1.1" id="Layer_1" xmlns="http://www.w3.org/2000/svg" xmlns:xlink="http://www.w3.org/1999/xlink" x="0px" y="0px"
	 viewBox="0 0 511.999 511.999" style="enable-background:new 0 0 511.999 511.999;" xml:space="preserve">
<g>
	<g>
		<path d="M50.345,253.538c-2.891-1.236-6.234-0.626-8.502,1.544L2.422,292.785C0.875,294.263,0,296.312,0,298.452
			s0.875,4.188,2.422,5.668l39.421,37.703c1.489,1.423,3.441,2.174,5.423,2.174c1.038,0,2.086-0.206,3.08-0.632
			c2.888-1.234,4.761-4.072,4.761-7.211v-75.405C55.106,257.609,53.233,254.771,50.345,253.538z M39.421,317.802l-20.233-19.35
			l20.233-19.35V317.802z"/>
	</g>
</g>
<g>
	<g>
		<path d="M273.227,184.79h-34.454c-4.332,0-7.843,3.511-7.843,7.843v137.189c0,4.331,3.51,7.843,7.843,7.843h34.454
			c4.332,0,7.843-3.511,7.843-7.843V192.633C281.07,188.302,277.559,184.79,273.227,184.79z M265.384,321.98h-18.769V200.476h18.769
			V321.98z"/>
	</g>
</g>
<g>
	<g>
		<path d="M273.227,38.267h-34.454c-4.332,0-7.843,3.511-7.843,7.843v96.115c0,4.331,3.51,7.843,7.843,7.843h34.454
			c4.332,0,7.843-3.511,7.843-7.843V46.11C281.07,41.778,277.559,38.267,273.227,38.267z M265.384,134.383h-18.769v-80.43h18.769
			V134.383z"/>
	</g>
</g>
<g>
	<g>
		<path d="M273.227,361.931h-34.454c-4.332,0-7.843,3.511-7.843,7.843v96.115c0,4.331,3.51,7.843,7.843,7.843h34.454
			c4.332,0,7.843-3.511,7.843-7.843v-96.115C281.07,365.442,277.559,361.931,273.227,361.931z M265.384,458.047h-18.769v-80.43
			h18.769V458.047z"/>
	</g>
</g>
<g>
	<g>
		<path d="M192.49,82.288H92.147v0.001c-13.645,0-24.746,11.101-24.746,24.746v304.998c0,13.645,11.101,24.746,24.746,24.746H192.49
			c13.645,0,24.746-11.101,24.746-24.746V107.034C217.236,93.389,206.135,82.288,192.49,82.288z M201.551,412.032
			c0,4.996-4.065,9.061-9.061,9.061H92.147c-4.996,0-9.061-4.065-9.061-9.061V107.034c0-4.996,4.065-9.061,9.061-9.061H192.49
			c4.996,0.001,9.061,4.066,9.061,9.061V412.032z"/>
	</g>
</g>
<g>
	<g>
		<path d="M175.587,242.818h-66.536c-4.332,0-7.843,3.511-7.843,7.843v144.468c0,4.331,3.51,7.843,7.843,7.843h66.536
			c4.332,0,7.843-3.511,7.843-7.843V250.661C183.429,246.33,179.919,242.818,175.587,242.818z M167.744,387.286h-50.851V258.503
			h50.851V387.286z"/>
	</g>
</g>
<g>
	<g>
		<path d="M175.587,116.095h-66.536c-4.332,0-7.843,3.511-7.843,7.843v92.917c0,4.331,3.51,7.843,7.843,7.843h66.536
			c4.332,0,7.843-3.511,7.843-7.843v-92.917C183.429,119.606,179.919,116.095,175.587,116.095z M167.744,209.011h-50.851V131.78
			h50.851V209.011z"/>
	</g>
</g>
<g>
	<g>
		<path d="M509.577,292.783l-39.421-37.701c-2.269-2.17-5.611-2.779-8.502-1.544c-2.888,1.234-4.761,4.072-4.761,7.211v75.405
			c0,3.14,1.873,5.978,4.761,7.211c0.993,0.425,2.041,0.632,3.08,0.632c1.983,0,3.934-0.751,5.423-2.175l39.421-37.703
			c1.547-1.48,2.422-3.527,2.422-5.668C511.999,296.31,511.124,294.262,509.577,292.783z M472.579,317.802v-38.701l20.233,19.35
			L472.579,317.802z"/>
	</g>
</g>
<g>
	<g>
		<path d="M402.948,242.818h-66.536c-4.332,0-7.843,3.511-7.843,7.843v144.468c0,4.331,3.51,7.843,7.843,7.843h66.536
			c4.332,0,7.843-3.511,7.843-7.843V250.661C410.791,246.33,407.28,242.818,402.948,242.818z M395.106,387.286h-50.851V258.503
			h50.851V387.286z"/>
	</g>
</g>
<g>
	<g>
		<path d="M419.852,82.288H319.509v0.001c-13.645,0-24.746,11.101-24.746,24.746v304.998c0,13.645,11.101,24.746,24.746,24.746
			h100.343c13.645,0,24.746-11.101,24.746-24.746V107.034C444.598,93.389,433.497,82.288,419.852,82.288z M428.913,412.032
			c0,4.996-4.065,9.061-9.061,9.061H319.509c-4.996,0-9.061-4.065-9.061-9.061V107.034c0-4.996,4.065-9.061,9.061-9.061h100.343
			c4.996,0.001,9.061,4.066,9.061,9.061V412.032z"/>
	</g>
</g>
<g>
	<g>
		<path d="M402.948,116.095h-66.536c-4.332,0-7.843,3.511-7.843,7.843v92.917c0,4.331,3.51,7.843,7.843,7.843h66.536
			c4.332,0,7.843-3.511,7.843-7.843v-92.917C410.791,119.606,407.28,116.095,402.948,116.095z M395.106,209.011h-50.851V131.78
			h50.851V209.011z"/>
	</g>
</g>
<g>
</g>
<g>
</g>
<g>
</g>
<g>
</g>
<g>
</g>
<g>
</g>
<g>
</g>
<g>
</g>
<g>
</g>
<g>
</g>
<g>
</g>
<g>
</g>
<g>
</g>
<g>
</g>
<g>
</g>
</svg>
