<?xml version="1.0"?>
<svg xmlns="http://www.w3.org/2000/svg" id="Layer_1" data-name="Layer 1" viewBox="0 0 512 512"><path d="M137.652,184.286a16.951,16.951,0,0,1,4.232,27.047c-10.661,10.661-28.918,3.066-28.918-11.963a16.961,16.961,0,0,1,9.2-15.084,1.928,1.928,0,0,0,1.058-1.709v-41.4a18.489,18.489,0,0,1,18.447-18.474H232.71c2.415,0,1.9-2.984,1.9-5.073a6.7,6.7,0,0,1,13.4,0v23.547a6.7,6.7,0,0,1-13.4,0c0-2.089.516-5.073-1.9-5.073H141.667a5.1,5.1,0,0,0-5.073,5.073v41.4a1.928,1.928,0,0,0,1.058,1.709Zm-29.3-67.55,22.679-12.994A43.026,43.026,0,0,0,150.7,54.206a1.9,1.9,0,0,1,.95-2.252C260.083-3.6,393.8,35.6,454.811,141.993a228.209,228.209,0,0,1,22.38,173.974,7.884,7.884,0,0,0,15.219,4.124c35.3-130.162-41.37-265.018-172.319-300.5A244.077,244.077,0,0,0,143.756,38.281a1.909,1.909,0,0,1-2.306-.434,42.948,42.948,0,0,0-53.009-8.383l-22.679,13a1.934,1.934,0,0,0-.7,2.6l40.692,70.968a1.935,1.935,0,0,0,2.605.7ZM466.313,460.453l-5.236-9.115a1.967,1.967,0,0,1,.7-2.631l23.277-13.347c6.429-3.69.841-13.456-5.589-9.767l-23.276,13.348a1.9,1.9,0,0,1-2.6-.706l-19.234-33.5a1.928,1.928,0,0,1,.7-2.6l23.276-13.347c6.43-3.69.841-13.483-5.588-9.794l-23.276,13.348a1.883,1.883,0,0,1-2.605-.7l-5.236-9.115a1.934,1.934,0,0,0-2.6-.706l-6.239,3.581a1.919,1.919,0,0,0-.733,2.6c14.867,25.935,29.841,52.006,44.681,77.94a1.967,1.967,0,0,0,2.631.706l6.24-3.582a1.917,1.917,0,0,0,.7-2.6Zm-62.667-65.19-22.679,13A43,43,0,0,0,361.3,457.8a1.909,1.909,0,0,1-.95,2.251C251.917,515.605,118.2,476.405,57.189,370.007a228.219,228.219,0,0,1-22.38-173.974,7.884,7.884,0,1,0-15.219-4.124C-15.7,322.071,60.96,456.9,191.909,492.41a244.081,244.081,0,0,0,176.335-18.691,1.9,1.9,0,0,1,2.306.407,42.988,42.988,0,0,0,53.009,8.41l22.679-13a1.966,1.966,0,0,0,.7-2.631l-40.692-70.941a1.912,1.912,0,0,0-2.6-.706ZM45.687,51.547l5.236,9.115a1.912,1.912,0,0,1-.733,2.6L26.941,76.614C20.512,80.3,26.1,90.1,32.53,86.407L55.806,73.06a1.88,1.88,0,0,1,2.6.7l19.234,33.5a1.913,1.913,0,0,1-.732,2.605L53.663,123.22c-6.43,3.69-.841,13.456,5.588,9.766l23.276-13.347a1.93,1.93,0,0,1,2.605.7l5.235,9.116a1.921,1.921,0,0,0,2.6.732l6.239-3.581a1.918,1.918,0,0,0,.706-2.631C85.077,98.072,70.1,71.974,55.236,46.067a1.9,1.9,0,0,0-2.6-.7l-6.24,3.58a1.906,1.906,0,0,0-.705,2.6ZM280,122.705h91.043a18.507,18.507,0,0,1,18.447,18.474V201.4a1.771,1.771,0,0,0,.6,1.384l6.864,6.511c4.883,4.639.515,12.235-5.317,11.5a1.919,1.919,0,0,0-2.144,1.9v71.185a1.808,1.808,0,0,0,.6,1.383l6.864,6.484c4.883,4.639.515,12.235-5.317,11.53a1.9,1.9,0,0,0-2.144,1.9v55.343A18.507,18.507,0,0,1,371.038,389H141.667a18.489,18.489,0,0,1-18.447-18.474V310.27a1.927,1.927,0,0,0-1.058-1.708,16.954,16.954,0,0,1,5.344-31.85,1.85,1.85,0,0,0,1.52-1.247l21.838-63.481a6.7,6.7,0,0,1,12.669,4.341l-21.839,63.48a1.862,1.862,0,0,0,.435,1.953,16.957,16.957,0,0,1-4.477,26.8,1.927,1.927,0,0,0-1.058,1.708v60.253a5.118,5.118,0,0,0,5.073,5.073H371.038a5.1,5.1,0,0,0,5.046-5.073V315.18a1.9,1.9,0,0,0-2.143-1.9c-5.833.705-10.2-6.891-5.317-11.53l6.863-6.484a1.808,1.808,0,0,0,.6-1.383V222.7a1.919,1.919,0,0,0-2.143-1.9c-5.833.733-10.2-6.863-5.317-11.5l6.863-6.511a1.771,1.771,0,0,0,.6-1.384V141.179a5.077,5.077,0,0,0-5.046-5.073H280a1.928,1.928,0,0,0-1.926,1.9v10.227a6.7,6.7,0,0,1-13.4,0V110.578a6.7,6.7,0,0,1,13.4,0v10.228a1.928,1.928,0,0,0,1.926,1.9Zm6.348,68.8-9.223,58.9a1.929,1.929,0,0,0,1.6,2.2l12.669,1.981a6.69,6.69,0,0,1,3.8,11.2h.027L237.7,326.2a6.672,6.672,0,0,1-11.367-5.942V320.2l9.224-58.923a1.9,1.9,0,0,0-1.574-2.17L221.316,257.1a6.677,6.677,0,0,1-3.825-11.177h0l57.485-60.443a6.7,6.7,0,0,1,11.394,5.942c0,.027-.027.054-.027.081Z"/></svg>
