<svg id="Layer_1" height="512" viewBox="0 0 1000 1000" width="512" xmlns="http://www.w3.org/2000/svg" data-name="Layer 1"><path d="m478.79 623.65a16 16 0 0 1 -13.43-7.29c-18.29-28.17-16.47-59.11 5-84.9 15-18 18.1-31.71 18.1-40.08a23 23 0 0 0 -1.52-9.05 16 16 0 0 1 21.89-21.49c32.17 17.81 52.12 40.71 59.29 68 9.48 36.13-6.3 69.46-16.55 86.12a16 16 0 1 1 -27.25-16.78c7.57-12.3 19.31-36.61 12.85-61.21-2.84-10.82-9-20.85-18.52-30-2.81 12.4-9.45 27.8-23.69 44.91-12.57 15.1-13.47 30.47-2.74 47a16 16 0 0 1 -13.41 24.72zm8.15-141.29c.13.26.22.39.23.41s-.17-.27-.23-.41z"/><path d="m505.43 626.82c-31.81 0-61-11.33-82.3-31.91-22.48-21.75-34.36-51.5-34.36-86 0-1.45 0-2.92.07-4.4-1-28.57 8.92-59.15 29.43-90.9a16 16 0 0 1 28 2 72.71 72.71 0 0 0 4.79 8.6 114.44 114.44 0 0 1 4.33-13.11c8.81-22.06 29.2-52.28 76.3-70.94a16.1 16.1 0 0 1 18.87 5.24 15.82 15.82 0 0 1 -.24 19.32 43.24 43.24 0 0 0 -6.91 19.43c-1.39 14.67 5.67 28.83 21 42.09a124 124 0 0 1 19.8 21.6c13.92 19.5 35.5 59.62 23.56 109.28a16.28 16.28 0 0 1 -.6 1.95c-16.96 44.93-51.17 67.75-101.74 67.75zm-72.71-173.73c-8.51 18-12.5 35-11.88 50.72v.63s0 .39 0 .58c0 1.29-.07 2.59-.07 3.86 0 50.6 34.82 85.94 84.66 85.94 37 0 59.11-14.25 71.43-46.17 8-35-5.7-64-18.72-82.23a92.59 92.59 0 0 0 -14.7-16c-25.48-22.05-32.11-44.73-32.22-62.15-34 27.54-31.91 62.57-31.7 65.13a15.77 15.77 0 0 1 -4.85 13.27 16 16 0 0 1 -13.66 4.1c-11.55-1.91-21.07-9.44-28.29-17.68z"/><path d="m751.63 699.89h-503.26a16 16 0 0 1 -13.52-24.57c74-116.62 81.29-266.47 81.58-273.36.17-101.07 82.45-183.24 183.57-183.24s183.39 82.17 183.57 183.28c.14 3.31 1.94 41.16 12.38 92.14 10 48.61 30 119.51 69.2 181.22a16 16 0 0 1 -13.52 24.57zm-475.29-32h447.32c-32.47-59.48-50-122.9-59.2-168-11.33-55.59-12.82-95.34-12.88-97 0-.18 0-.37 0-.55 0-83.58-68-151.57-151.57-151.57s-151.57 68-151.57 151.57v.55c-.06 1.67-1.55 41.42-12.88 97-9.22 45.11-26.75 108.52-59.22 168z"/><path d="m500 857.67a97.92 97.92 0 0 1 -97.81-97.81 16 16 0 0 1 32 0 65.81 65.81 0 1 0 131.62 0 16 16 0 0 1 32 0 97.92 97.92 0 0 1 -97.81 97.81z"/><path d="m758.57 775.55h-517.14a52.34 52.34 0 0 1 -52.28-52.28v-3.1a52.34 52.34 0 0 1 52.28-52.28h517.14a52.34 52.34 0 0 1 52.28 52.28v3.1a52.34 52.34 0 0 1 -52.28 52.28zm-517.14-75.66a20.3 20.3 0 0 0 -20.28 20.28v3.1a20.3 20.3 0 0 0 20.28 20.28h517.14a20.3 20.3 0 0 0 20.28-20.28v-3.1a20.3 20.3 0 0 0 -20.28-20.28z"/><path d="m548.12 257.73a16 16 0 0 1 -16-16v-35.28a32.12 32.12 0 1 0 -64.24 0v35.28a16 16 0 1 1 -32 0v-35.28a64.12 64.12 0 1 1 128.24 0v35.28a16 16 0 0 1 -16 16z"/><path d="m159.62 588.8a15.94 15.94 0 0 1 -11.32-4.69 219 219 0 0 1 0-310 16 16 0 0 1 22.63 22.63 187 187 0 0 0 0 264.74 16 16 0 0 1 -11.31 27.32z"/><path d="m205.42 543a16 16 0 0 1 -11.31-4.68 154.27 154.27 0 0 1 0-218.4 16 16 0 0 1 22.63 22.63 122.26 122.26 0 0 0 0 173.14 16 16 0 0 1 -11.32 27.31z"/><path d="m251.21 497.21a15.94 15.94 0 0 1 -11.31-4.68 89.69 89.69 0 0 1 0-126.84 16 16 0 0 1 22.62 22.64 57.68 57.68 0 0 0 0 81.56 16 16 0 0 1 -11.31 27.32z"/><path d="m840.38 588.8a16 16 0 0 1 -11.31-27.32 187 187 0 0 0 0-264.74 16 16 0 1 1 22.63-22.63 219 219 0 0 1 0 310 15.94 15.94 0 0 1 -11.32 4.69z"/><path d="m794.58 543a16 16 0 0 1 -11.32-27.31 122.26 122.26 0 0 0 0-173.14 16 16 0 0 1 22.63-22.63 154.27 154.27 0 0 1 0 218.4 16 16 0 0 1 -11.31 4.68z"/><path d="m748.79 497.21a16 16 0 0 1 -11.31-27.32 57.68 57.68 0 0 0 0-81.56 16 16 0 0 1 22.62-22.64 89.69 89.69 0 0 1 0 126.84 15.94 15.94 0 0 1 -11.31 4.68z"/></svg>