<svg id="Layer_1" enable-background="new 0 0 512 512" viewBox="0 0 512 512" xmlns="http://www.w3.org/2000/svg"><path d="m296.3 476.73c-40.59-27.78-27.3-77.05-18.03-111.4 3.12-11.62 5.73-21.32 5.22-26.36-.51-5.24 4.82-9.24 9.84-7.03 7.97 3.51 15.56 11.59 19.84 20.64 9.35-17.8 13.12-36.34 8.79-55.79-1.28-5.78 4.79-10.37 10.01-7.71 6.97 3.6 13.32 7.71 19.08 12.27 2.64-10.23 8.08-28.12 7.48-34.24-.54-5.24 4.82-9.24 9.81-7.03 7.26 3.2 14.26 10.43 18.4 18.68 8.39-16.3 11.71-33.25 7.77-51.02-1.3-5.78 4.79-10.4 9.98-7.71h.03c24.01 12.44 40.48 31.18 49.27 55.9 1.05-5.64 8.05-7.68 11.96-3.51 17.72 18.96 26.36 44.73 23.7 70.53-3.91 37.79-30.19 65.79-66.36 68.37-.37 32.49-16.47 61.94-45.38 75.03-26.41 11.95-56.66 7.31-81.41-9.62zm66.48-164.49c10.46 11.37 17.97 24.72 22.82 39.74l-.11-.6c-1.64-7 7.06-11.51 11.88-6.35 13.55 14.51 22.2 32.85 24.83 52.36 48.05-3.54 66.78-59.78 44.25-100.43-1.67 4.9-4.31 9.47-7.88 13.44-3.94 4.37-11.48 2.18-12.16-3.91-3.12-28.01-14.37-51-36.34-66.76.79 21.74-7.2 42.21-20.41 61.06-4 5.64-12.95 2.64-12.67-4.28.23-5.87-2.35-11.93-5.95-16.61-2.14 9.83-5.77 21.59-8.26 32.34zm-71.01 56.69c-8.22 30.44-19.98 74.1 12.42 96.26 44.79 30.64 98.82 8.33 104.49-46.52 1.76-17.09-1.87-34.19-10.32-48.93-1.73 5.56-4.68 10.77-8.7 15.25-3.91 4.37-11.45 2.18-12.13-3.91-3.4-30.47-15.76-55.39-39.91-72.34 1.13 23.53-7.4 45.67-21.68 66.02-4 5.64-12.95 2.61-12.67-4.31.26-6.72-2.86-13.66-7.14-18.88-1.07 5.2-2.66 11.04-4.36 17.36zm-200.52 17.32h144.82v-116.79h-144.82zm144.82 49.75h-144.82v28.12c0 6.43 3.63 14.06 9.47 14.06h125.88c5.81 0 9.47-7.63 9.47-14.06zm0-35.75h-144.82v21.75h144.82zm-144.82-180.51h144.82v-28.14c0-36.48-21.86-44.33-53.21-44.33h-39.66c-31.04 0-51.96 8.84-51.96 44.33v28.14zm144.82 13.98h-144.82v21.74h144.82zm-46.21-100.35c35.8 1.36 60.18 16.89 60.18 58.22v272.52c0 14.15-9.41 28.06-23.44 28.06h-125.89c-14.03 0-23.47-13.92-23.47-28.06v-272.51c0-41.33 24.41-56.86 60.18-58.22v-15.73c-21.91-.11-49.04 4.25-60.66 20.1-.28.4-.6.77-.96 1.08h.03c-16.1 14.49-39.32-3.63-29.45-23.33 9.24-18.45 37.96-28.12 61.57-31.69l-40.63-13.48c-3-.28-5.22 5.33-7.54 11.31-1.96 5.05-4 10.23-7.26 14.57-.82 1.08-1.9 1.84-3.06 2.3-9.86 4.56-16.84 2.38-20.95-6.55-2.75-5.98-3.29-15.79-1.64-29.45.48-4.14 2.78-9.95 4.71-13.21 9.38-16.02 27.92-18.17 46.66-14.66 17.83 3.37 40.82 12.73 69.31 29.08 3.06-1.81 6.63-2.86 10.43-2.86h11.37c10.15 0 18.74 7.48 20.3 17.38l131.27-46.01c4.59-1.62 9.3 1.84 9.3 6.58v124.84c0 4.68-4.59 8.48-9.84 6.41l-130.52-45.76zm-52.27-54.51c.17-1.45.51-2.86.99-4.2-26.93-15.28-63.92-32.4-84.47-26.25-4.79 1.42-8.25 4.11-10.52 7.94-1.28 2.21-2.24 4.85-2.83 7.91-1.33 11.06-1.19 18.34.45 21.88.11.28.51.34 1.13.2 1.67-2.72 3.06-6.32 4.42-9.81 4.59-11.76 8.9-22.82 23.36-19.9 2.05.35 60.24 19.85 67.47 22.23zm31.75-4h-11.37c-3.57 0-6.55 2.95-6.55 6.52v51.87h24.43v-51.87c.01-3.57-2.94-6.52-6.51-6.52zm-31.92 28.83v-8.25c-19.5.2-36.37 2.98-49.69 7.34-15.17 4.96-25.31 11.76-28.89 18.94-2.04 4.05.11 7.82 3.4 8.28 1.13.17 2.47-.17 3.8-1.22 6.49-8.48 16.81-15.42 30.95-19.81 11.07-3.43 24.53-5.36 40.43-5.28zm52.44 5.81 126.34 44.31v-105.17l-126.34 44.31z"/></svg>