<svg id="Layer_1" enable-background="new 0 0 96 96" height="96" viewBox="0 0 96 96" width="96" xmlns="http://www.w3.org/2000/svg"><g><g fill="none" stroke="#000" stroke-miterlimit="10"><path d="m10.675 8.001h-2.675v13.841"/><path d="m13.393 34.666h8.492"/><path d="m8 21.842v12.824h5.393"/><path d="m30.378 34.666h4.289v-9.997"/><path d="m27.661 8.001h-8.494"/><path d="m34.667 24.669v-16.668h-7.006"/><path d="m21.885 34.666h8.493"/><path d="m19.167 8.001h-8.492"/><path d="m8 48.508 5.393 12.824h8.492l-11.21-26.665h-2.675z"/><path d="m8 61.332h5.393l-5.393-12.824z"/><path d="m34.667 61.332v-9.996l-7.006-16.669h-8.494l11.211 26.665z"/><path d="m34.667 34.667h-7.006l7.006 16.669z"/><path d="m30.378 61.332-11.211-26.665h-8.492l11.21 26.665z"/><path d="m10.675 61.334h-2.675v13.841"/><path d="m13.393 87.999h8.492"/><path d="m8 75.175v12.824h5.393"/><path d="m30.378 87.999h4.289v-9.997"/><path d="m27.661 61.334h-8.494"/><path d="m34.667 78.002v-16.668h-7.006"/><path d="m21.885 87.999h8.493"/><path d="m19.167 61.334h-8.492"/><path d="m34.667 21.842 5.392 12.824h8.493l-11.211-26.665h-2.674z"/><path d="m34.667 34.666h5.392l-5.392-12.824z"/><path d="m61.334 34.666v-9.997l-7.007-16.668h-8.493l11.211 26.665z"/><path d="m61.334 8.001h-7.007l7.007 16.668z"/><path d="m57.045 34.666-11.211-26.665h-8.493l11.211 26.665z"/><path d="m37.341 34.667h-2.674v13.841"/><path d="m40.059 61.332h8.493"/><path d="m34.667 48.508v12.824h5.392"/><path d="m57.045 61.332h4.289v-9.997"/><path d="m54.327 34.667h-8.493"/><path d="m61.334 51.335v-16.668h-7.007"/><path d="m48.552 61.332h8.493"/><path d="m45.834 34.667h-8.493"/><path d="m34.667 75.175 5.392 12.824h8.493l-11.211-26.665h-2.674z"/><path d="m34.667 87.999h5.392l-5.392-12.824z"/><path d="m61.334 87.999v-9.997l-7.007-16.668h-8.493l11.211 26.665z"/><path d="m61.334 61.334h-7.007l7.007 16.668z"/><path d="m57.045 87.999-11.211-26.665h-8.493l11.211 26.665z"/><g><path d="m64.008 8.001h-2.674v13.841"/><path d="m66.726 34.666h8.492"/><path d="m61.334 21.842v12.824h5.392"/><path d="m83.711 34.666h4.289v-9.997"/><path d="m80.993 8.001h-8.493"/><path d="m88 24.669v-16.668h-7.007"/><path d="m75.218 34.666h8.493"/><path d="m72.5 8.001h-8.492"/></g><g><path d="m61.334 48.508 5.392 12.824h8.492l-11.21-26.665h-2.674z"/><path d="m61.334 61.332h5.392l-5.392-12.824z"/><path d="m88 61.332v-9.997l-7.007-16.668h-8.493l11.211 26.665z"/><path d="m88 34.667h-7.007l7.007 16.668z"/><path d="m83.711 61.332-11.211-26.665h-8.492l11.21 26.665z"/></g><g><path d="m64.008 61.334h-2.674v13.841"/><path d="m66.726 87.999h8.492"/><path d="m61.334 75.175v12.824h5.392"/><path d="m83.711 87.999h4.289v-9.997"/><path d="m80.993 61.334h-8.493"/><path d="m88 78.002v-16.668h-7.007"/><path d="m75.218 87.999h8.493"/><path d="m72.5 61.334h-8.492"/></g></g></g></svg>