<svg id="Layer_1" viewBox="0 0 64 64" xmlns="http://www.w3.org/2000/svg" data-name="Layer 1"><path d="m60 55.5h-3.5v-34h3.5c.22 0 .42-.15.48-.37s-.03-.45-.22-.56l-28-17s-.02 0-.03 0c-.07-.04-.15-.07-.23-.07s-.16.03-.23.07c0 0-.02 0-.03 0l-28 17c-.19.12-.28.35-.22.56s.26.37.48.37h3.5v34h-3.5c-.28 0-.5.22-.5.5v4c0 .28.22.5.5.5h56c.28 0 .5-.22.5-.5v-4c0-.28-.22-.5-.5-.5zm-27.5-23h23v23h-23zm23.5-12c-.28 0-.5.22-.5.5v10.5h-23v-26.61l25.71 15.61zm-50.21 0 25.71-15.61v26.61h-23v-10.5c0-.28-.22-.5-.5-.5zm2.71 12h23v23h-23zm51 27h-55v-3h55z"/><path d="m22 30.25c3.99 0 6.73-3.76 6.99-7.24.23-3.14-1.77-5.5-2.64-6.37-1.45-1.44-3.1-2.09-4.23-2.38-.19-.05-.38.02-.51.16-.12.15-.15.35-.07.53.09.2.88 2 .03 3.4-.15.24-.34.46-.57.65-.24-.12-.44-.28-.62-.47-.62-.66-.67-1.52-.66-1.85 0-.18-.09-.35-.25-.44-.15-.09-.35-.09-.5 0-2.48 1.42-4 4-3.96 6.73.06 3.94 3.26 7.27 6.99 7.27zm-3.19-12.7c.11.52.34 1.14.85 1.68.34.37.76.65 1.25.83.15.06.32.04.46-.06.44-.3.8-.68 1.07-1.12.71-1.17.59-2.47.37-3.35.88.34 1.91.9 2.85 1.83.77.77 2.54 2.85 2.34 5.58-.19 2.64-2.38 6.31-5.99 6.31-3.19 0-5.93-2.88-5.99-6.28-.03-2.11 1.02-4.13 2.79-5.42z"/><path d="m35.73 19.42c1.22.77 2.39 1.15 3.49 1.15.3 0 .59-.03.88-.09.97-.19 1.62-.67 2.2-1.09.54-.39 1.05-.76 1.8-.91 1.08-.22 2.31.1 3.64.93.23.15.54.08.69-.16.15-.23.08-.54-.16-.69-1.55-.98-3.02-1.33-4.36-1.07-.97.19-1.62.67-2.2 1.09-.54.39-1.05.76-1.8.91-1.08.21-2.31-.1-3.64-.93-.23-.14-.54-.08-.69.16-.15.23-.08.54.16.69z"/><path d="m35.73 23.35c1.22.77 2.39 1.15 3.49 1.15.3 0 .59-.03.88-.09.97-.19 1.62-.67 2.2-1.09.54-.39 1.05-.76 1.8-.91 1.08-.22 2.31.1 3.64.93.23.15.54.08.69-.16.15-.23.08-.54-.16-.69-1.55-.98-3.02-1.33-4.36-1.07-.97.19-1.62.67-2.2 1.09-.54.39-1.05.76-1.8.91-1.08.21-2.31-.1-3.64-.93-.23-.14-.54-.08-.69.16-.15.23-.08.54.16.69z"/><path d="m48.27 26.42c-1.55-.98-3.02-1.33-4.36-1.07-.97.19-1.62.67-2.2 1.09-.54.39-1.05.76-1.8.91-1.08.21-2.31-.1-3.64-.93-.23-.14-.54-.08-.69.16-.15.23-.08.54.16.69 1.22.77 2.39 1.15 3.49 1.15.3 0 .59-.03.88-.09.97-.19 1.62-.67 2.2-1.09.54-.39 1.05-.76 1.8-.91 1.08-.22 2.31.1 3.64.93.23.15.54.08.69-.16.15-.23.08-.54-.16-.69z"/><path d="m48.34 42.54 2.53.68s.09.02.13.02c.22 0 .42-.15.48-.37.07-.27-.09-.54-.35-.61l-1.57-.42 1.55-.9c.24-.14.32-.44.18-.68s-.44-.32-.68-.18l-1.55.9.42-1.57c.07-.27-.09-.54-.35-.61-.27-.07-.54.09-.61.35l-.68 2.53-2.53 1.46v-2.93l1.85-1.85c.2-.19.2-.51 0-.71s-.51-.2-.71 0l-1.15 1.15v-1.79c0-.28-.22-.5-.5-.5s-.5.22-.5.5v1.79l-1.15-1.15c-.2-.2-.51-.2-.71 0s-.2.51 0 .71l1.85 1.85v2.93l-2.53-1.46-.68-2.53c-.07-.27-.34-.43-.61-.35-.27.07-.42.35-.35.61l.42 1.57-1.55-.9c-.24-.14-.54-.06-.68.18s-.06.54.18.68l1.55.9-1.57.42c-.27.07-.42.35-.35.61.06.22.26.37.48.37.04 0 .09 0 .13-.02l2.53-.68 2.53 1.46-2.53 1.46-2.53-.68c-.27-.07-.54.09-.61.35-.07.27.09.54.35.61l1.57.42-1.55.9c-.24.14-.32.44-.18.68.09.16.26.25.43.25.08 0 .17-.02.25-.07l1.55-.9-.42 1.57c-.07.27.09.54.35.61.04.01.09.02.13.02.22 0 .42-.15.48-.37l.68-2.53 2.53-1.46v2.93l-1.85 1.85c-.2.19-.2.51 0 .71s.51.2.71 0l1.15-1.15v1.79c0 .28.22.5.5.5s.5-.22.5-.5v-1.79l1.15 1.15c.1.1.23.15.35.15s.26-.05.35-.15c.2-.2.2-.51 0-.71l-1.85-1.85v-2.93l2.53 1.46.68 2.53c.06.22.26.37.48.37.04 0 .09 0 .13-.02.27-.07.42-.35.35-.61l-.42-1.57 1.55.9c.08.05.17.07.25.07.17 0 .34-.09.43-.25.14-.24.06-.54-.18-.68l-1.55-.9 1.57-.42c.27-.07.42-.35.35-.61-.07-.27-.34-.42-.61-.35l-2.53.68-2.53-1.46 2.53-1.46z"/><path d="m22.87 42.04c-.39-.57-.94-1.02-1.58-1.27.03-.23.07-.46.15-.69.36-1.06 1.1-1.6 1.69-2.03.5-.36.97-.71.87-1.28-.07-.44-.51-.83-1.21-1.06-1.04-.35-2.67-.35-3.86.78-1.12 1.07-1.63 2.97-1.35 5.01-.23.22-.42.46-.58.73-.33-.03-.65-.08-.93-.17-1.06-.35-1.6-1.09-2.03-1.69-.37-.5-.71-.96-1.28-.87-.45.07-.83.52-1.07 1.21-.35 1.04-.35 2.67.79 3.86.87.92 2.32 1.43 3.92 1.43.23 0 .48-.03.72-.05.39.58.94 1.02 1.58 1.28-.03.23-.07.46-.15.69-.36 1.06-1.1 1.6-1.69 2.03-.5.37-.97.71-.87 1.28.07.44.51.83 1.21 1.06.37.12.82.2 1.29.2.86 0 1.8-.26 2.57-.99 1.12-1.07 1.63-2.97 1.35-5.02.23-.22.42-.46.58-.73.33.03.65.08.93.17 1.06.35 1.6 1.09 2.03 1.69.33.45.65.88 1.13.88.05 0 .1 0 .15-.01.45-.07.83-.52 1.07-1.21.35-1.04.35-2.67-.79-3.86-1-1.05-2.76-1.57-4.64-1.39zm-3.25-4.82c.62-.58 1.36-.71 1.89-.71.21 0 .38.02.5.04.49.08.82.25.95.36-.1.09-.28.23-.43.34-.63.46-1.59 1.16-2.05 2.52-.08.25-.14.5-.18.75-.05 0-.1 0-.15 0-.06 0-.11-.01-.16-.01-.03 0-.05 0-.08 0-.12 0-.24.02-.36.03-.11.01-.22.03-.33.06-.12.03-.23.05-.34.09-.06.02-.12.05-.18.07-.06.03-.13.05-.19.07-.09-1.5.32-2.87 1.11-3.62zm-6.41 6.67c-.81-.85-.74-1.95-.67-2.38.08-.51.26-.85.35-.97.09.1.24.29.34.44.46.63 1.17 1.59 2.52 2.04.26.09.54.15.83.19v.03c-.06.25-.09.51-.09.77 0 .27.04.54.1.8 0 .04.01.08.03.11 0 .03.01.06.02.09-1.42.06-2.71-.35-3.43-1.12zm4.6 1.31c-.2-.36-.31-.77-.31-1.2 0-.35.08-.7.23-1.04.16-.35.39-.66.69-.89.15-.12.31-.22.49-.31.02 0 .03-.02.05-.02.34-.16.72-.23 1.07-.23.18 0 .34.03.5.06.03 0 .07 0 .1.01.67.17 1.23.61 1.56 1.22.2.36.31.77.31 1.2 0 .35-.08.7-.23 1.04s0 0 0 0c-.16.35-.39.66-.69.89-.15.12-.31.22-.48.31-.02 0-.04.02-.06.03-.34.15-.71.23-1.07.23-.18 0-.35-.03-.5-.06-.03 0-.06 0-.09-.01-.67-.17-1.23-.61-1.56-1.22zm2.57 5.59c-.86.81-1.96.74-2.39.67-.51-.08-.84-.26-.96-.35.09-.09.29-.24.44-.35.63-.46 1.59-1.16 2.05-2.52.08-.25.14-.5.18-.75h.16.15.06c.15 0 .29-.02.44-.04.07 0 .13-.02.2-.03.14-.03.28-.06.42-.11.06-.02.11-.04.17-.07.07-.03.13-.05.2-.08.09 1.5-.32 2.87-1.11 3.62zm7.09-4.29c-.08.49-.25.83-.36.96-.09-.1-.23-.28-.34-.43-.46-.63-1.17-1.59-2.52-2.04-.26-.09-.54-.15-.83-.19 0 0 0-.02 0-.03.06-.25.09-.51.09-.77 0-.27-.04-.54-.1-.8 0-.04-.01-.08-.03-.11 0-.03-.01-.06-.02-.09 1.43-.06 2.71.35 3.43 1.12.81.85.74 1.95.67 2.38z"/></svg>