<svg id="Outline" enable-background="new 0 0 64 64" height="512" viewBox="0 0 64 64" width="512" xmlns="http://www.w3.org/2000/svg"><g><path d="m23.718 50.871c.385-.396.375-1.029-.021-1.414-1.338-1.297-2.631-2.162-2.686-2.198-.3-.198-.685-.222-1.008-.058-.322.164-.53.489-.545.85-.023.571-.143 5.222 1.744 7.962-.38.033-.713.27-.851.631-.05.131-1.195 3.239.94 6.48.362.549.981.876 1.658.876h8.103c.676 0 1.296-.327 1.658-.876v-.001c2.133-3.24.989-6.349.939-6.479-.116-.306-.372-.524-.678-.605 1.906-2.737 1.785-7.416 1.762-7.989-.015-.36-.223-.686-.545-.85-.319-.164-.707-.141-1.008.058-.109.073-2.064 1.386-3.656 3.222-.573-2.002-1.48-3.665-1.653-3.971-.354-.629-1.389-.629-1.743 0-.309.549-2.982 5.457-1.853 8.863.064.193.155.363.24.539-.012.024-.019.049-.032.073-.475-.059-.879-.26-1.243-.619-1.115-1.1-1.566-3.384-1.722-5.19.252.218.518.458.785.717.397.385 1.03.376 1.415-.021zm7.335 11.13-.002-.001-8.09.023c-1.069-1.624-1.033-3.182-.896-4.023h2.661c.022 0 .042.006.063.006.075 0 .15-.003.226-.006h4.16c.076.003.151.006.226.006.022 0 .042-.006.063-.006h2.47c.137.837.174 2.385-.881 4.001zm1.619-11.824c-.156 1.806-.606 4.09-1.721 5.189-.362.357-.764.558-1.235.618-.054-.098-.092-.2-.129-.301.044-.105.101-.199.138-.31.219-.662.292-1.381.27-2.114.653-1.176 1.748-2.283 2.677-3.082zm-5.671-.843c.683 1.678 1.32 3.917.825 5.409-.161.486-.428.851-.826 1.12-.397-.27-.664-.633-.826-1.118-.494-1.487.144-3.73.827-5.411z"/><path d="m63 53h-2c-.553 0-1 .447-1 1s.447 1 1 1h1v2h-15v-2h11c.553 0 1-.447 1-1s-.447-1-1-1h-6v-1h3c.553 0 1-.447 1-1v-4c0-.553-.447-1-1-1v-17c0-.288-.124-.563-.342-.753l-32-28c-.038-.033-.085-.046-.127-.072-.059-.038-.115-.079-.182-.104-.069-.026-.138-.032-.21-.042-.047-.008-.089-.029-.139-.029h-21c-.552 0-1 .447-1 1s.448 1 1 1v16c-.552 0-1 .447-1 1v4c0 .553.448 1 1 1h22c.552 0 1-.447 1-1v-.921l3.338 2.921h-1.338c-.552 0-1 .447-1 1s.448 1 1 1h4v2h-8v-2h1c.552 0 1-.447 1-1s-.448-1-1-1h-2c-.552 0-1 .447-1 1v4c0 .553.448 1 1 1h3v1c0 .552.448 1 1 1h2c.552 0 1-.448 1-1v-1h3c.552 0 1-.447 1-1v-.921l3.338 2.921h-6.338c-.552 0-1 .447-1 1v4c0 .553.448 1 1 1h3v1c0 .552.448 1 1 1h2c.552 0 1-.448 1-1v-1h3c.553 0 1-.447 1-1v-.921l3.338 2.921h-6.338c-.553 0-1 .447-1 1v4c0 .553.447 1 1 1h3v1c0 .552.448 1 1 1h2c.552 0 1-.448 1-1v-1h3c.553 0 1-.447 1-1v-.921l3.338 2.921h-6.338c-.553 0-1 .447-1 1v4c0 .553.447 1 1 1h3v1h-2c-.553 0-1 .447-1 1v3h-4c-.553 0-1 .447-1 1v5c0 .553.447 1 1 1h22c.553 0 1-.447 1-1v-5-4c0-.553-.447-1-1-1zm-42-51v16h-15.297l11.948-10.241c.419-.359.468-.99.108-1.409-.36-.422-.992-.469-1.41-.108l-13.349 11.441v-3.215l7.64-6.367c.424-.354.481-.984.128-1.409-.354-.424-.984-.481-1.408-.128l-6.36 5.301v-9.865zm1 20h-20v-2h20zm16 14h-8v-2h8zm1-4v-13c0-.553-.447-1-1-1s-1 .447-1 1v11.796l-5-4.375v-.421c0-.553-.448-1-1-1h-.624l-4.705-4.116 3.979-3.411c.419-.359.468-.99.108-1.409-.36-.421-.992-.47-1.41-.108l-4.198 3.598-.15-.133v-.421c0-.553-.448-1-1-1v-14.796l10.008 8.757-1.659 1.422c-.419.36-.468.991-.108 1.41.198.231.478.35.76.35.23 0 .462-.079.65-.24l1.878-1.61 15.552 13.607-8.857 7.592-1.224-1.071v-.421c0-.553-.447-1-1-1zm7 11h-8v-2h8zm1-4h-.624l-3.632-3.178 8.857-7.592 1.399 1.224v1.373l-2.65 2.272c-.42.359-.469.99-.108 1.409.197.231.478.35.759.35.23 0 .462-.079.65-.241l1.349-1.158v11.336l-5-4.375v-.42c0-.553-.447-1-1-1zm-1 9h8v2h-8zm16 14h-20v-3h4 16z"/><path d="m.45 37.495c-.352.231-.521.66-.422 1.07.178.735 1.45 5.673 3.961 8.435h-1.989c-.511 0-.939.385-.994.893-.038.351-.905 8.639 1.25 13.293.805 1.71 2.573 2.814 4.504 2.814h4.47c1.943 0 3.713-1.106 4.507-2.818 2.163-4.65 1.286-12.939 1.248-13.29-.056-.508-.485-.892-.995-.892h-2.712c3.684-3.805 6.322-11.537 6.671-12.597.147-.448-.038-.938-.444-1.177-.407-.237-.924-.158-1.244.188-.027.03-2.124 2.33-4.41 5.127-.002-1.731-.118-3.005-.126-3.086-.052-.55-.543-.973-1.089-.901-.55.052-.954.539-.902 1.089.003.028.268 2.91-.01 5.847-.157 1.741-.482 3.108-.934 4.083.139-.69.259-1.416.334-2.21.828-7.975-1.069-16.28-1.15-16.63-.103-.44-.488-.758-.94-.772-.456-.045-.858.273-.991.707-.052.17-1.008 3.38-1.294 8.499-.994-2.066-1.827-3.52-1.883-3.617-.231-.402-.706-.592-1.153-.459-.444.133-.739.554-.711 1.017.012.21.232 3.758 1.032 7.564-1.286-1.275-2.355-2.084-2.434-2.143-.337-.253-.797-.265-1.15-.034zm13.473 22.844c-.468 1.009-1.525 1.661-2.693 1.661h-4.47c-1.16 0-2.218-.654-2.692-1.66-1.538-3.321-1.306-9.125-1.149-11.34h12.153c.16 2.212.398 8.013-1.149 11.339zm-.473-16.75c.093-.505.171-1.04.23-1.612.705-.917 1.437-1.831 2.142-2.683-.701 1.485-1.508 2.998-2.372 4.295zm-4.504-10.742c.285 2.471.482 5.494.322 8.529-.169-.536-.355-1.089-.571-1.667-.087-2.625.042-4.954.249-6.862zm-2.181 7.396c.899 2.381 1.287 4.098 1.401 5.331-.032-.052-.063-.105-.095-.16-.007-.014-.015-.028-.023-.042-.291-.507-.555-1.066-.787-1.668-.728-1.853-1.235-4.077-1.581-6.087.372.834.745 1.723 1.085 2.626zm-1.318 4.303c.246.625.526 1.218.835 1.764.021.048.04.095.055.138-1.301-.856-2.409-2.898-3.199-4.831.8.84 1.638 1.845 2.309 2.929z"/><path d="m51 0c-.553 0-1 .447-1 1v3.184c-1.161.414-2 1.514-2 2.816v3c0 1.103.897 2 2 2h2c1.103 0 2-.897 2-2v-3c0-1.302-.839-2.402-2-2.816v-3.184c0-.553-.447-1-1-1zm-1 10v-3c0-.552.448-1 1-1s1 .448 1 1l.002 3z"/><path d="m56 0c-.553 0-1 .447-1 1v13.184c-1.161.414-2 1.514-2 2.816v3c0 1.103.897 2 2 2h2c1.103 0 2-.897 2-2v-3c0-1.302-.839-2.402-2-2.816v-13.184c0-.553-.447-1-1-1zm-1 20v-3c0-.552.448-1 1-1s1 .448 1 1l.002 3z"/><path d="m62 6.184v-5.184c0-.553-.447-1-1-1s-1 .447-1 1v5.184c-1.161.414-2 1.514-2 2.816v3c0 1.103.897 2 2 2h2c1.103 0 2-.897 2-2v-3c0-1.302-.839-2.402-2-2.816zm-2 5.816v-3c0-.552.448-1 1-1s1 .448 1 1l.002 3z"/><path d="m12.8 6c.226 0 .453-.076.64-.231l1.2-1c.424-.354.481-.984.128-1.408-.354-.427-.984-.482-1.408-.129l-1.2 1c-.424.354-.481.984-.128 1.408.197.238.482.36.768.36z"/><path d="m49.759 34.92c-.358-.418-.989-.467-1.41-.107l-2 1.715c-.419.359-.467.99-.107 1.41.197.23.478.349.759.349.23 0 .462-.079.651-.241l2-1.715c.418-.36.466-.991.107-1.411z"/></g></svg>