<svg id="Layer_1" enable-background="new 0 0 512 512" height="512" viewBox="0 0 512 512" width="512" xmlns="http://www.w3.org/2000/svg"><path d="m169.08 361.14v31.56c0 3.31-2.69 6-6 6s-6-2.69-6-6v-31.56c0-3.31 2.69-6 6-6s6 2.69 6 6zm-63.78-21.48c-2.87-1.66-6.54-.67-8.2 2.2l-15.78 27.33c-1.66 2.87-.67 6.54 2.2 8.2.94.54 1.98.8 2.99.8 2.07 0 4.09-1.08 5.2-3l15.78-27.33c1.66-2.87.68-6.54-2.19-8.2zm-50.49-44.49-27.33 15.78c-2.87 1.66-3.85 5.33-2.2 8.2 1.11 1.92 3.13 3 5.2 3 1.02 0 2.05-.26 2.99-.8l27.33-15.78c2.87-1.66 3.85-5.33 2.2-8.2s-5.33-3.86-8.19-2.2zm174.24 46.69c-1.66-2.87-5.33-3.85-8.2-2.2-2.87 1.66-3.85 5.33-2.2 8.2l15.78 27.33c1.11 1.92 3.13 3 5.2 3 1.02 0 2.05-.26 2.99-.8 2.87-1.66 3.85-5.33 2.2-8.2zm258.48 20.96v133.18c0 3.31-2.69 6-6 6h-58.46c-3.31 0-6-2.69-6-6v-17.82c0-5.54-2.37-10.2-6.84-13.46-6.65-4.85-10.62-12.66-10.62-20.89 0-1.13.07-2.27.22-3.39.23-1.73.19-3.38-.05-4.97h-125.41c-11.86 0-21.51-9.65-21.51-21.51v-168.37h-15.66c-3.07 38.22-35.13 68.39-74.13 68.39s-71.06-30.17-74.13-68.39h-40.01c-1.8 0-3.51-.81-4.65-2.21s-1.59-3.23-1.23-5c5.61-27.21 20.57-51.99 42.13-69.75 10.33-8.52 21.96-15.22 34.35-19.93-.31-2.12-.48-4.26-.48-6.41 0-15.53 8.1-29.2 20.29-37.04v-48.65h-23.25c-12.85 0-23.3-10.45-23.3-23.3v-17.3c0-3.31 2.69-6 6-6h132.43c3.31 0 6 2.69 6 6v17.3c0 12.85-10.45 23.3-23.3 23.3h-27.12v48.64c12.19 7.83 20.29 21.51 20.29 37.04 0 2.15-.17 4.29-.48 6.41 17.49 6.65 33.34 17.28 46.25 31.15v-31.78c0-11.86 9.65-21.51 21.51-21.51h146.37c11.86 0 21.51 9.65 21.51 21.51v119.66l38.86 70.23c4.38 7.93 6.42 15.82 6.42 24.87zm-176.29-224.26.84 3.97c1.57 7.37 5.55 12.52 9.69 12.52h51.54c4.14 0 8.12-5.15 9.69-12.52l.84-3.97zm-195.15-93.96h97.83c6.23 0 11.3-5.07 11.3-11.3v-11.3h-120.43v11.3c0 6.23 5.07 11.3 11.3 11.3zm35.26 55.27c3.74-1.03 7.67-1.6 11.73-1.6s7.99.56 11.73 1.6v-43.27h-23.45v43.27zm-20.17 45.06c10.34-2.79 21.06-4.24 31.89-4.24 10.9 0 21.61 1.46 31.89 4.24.07-.88.12-1.76.12-2.65 0-17.65-14.36-32.01-32.01-32.01s-32.01 14.36-32.01 32.01c0 .89.05 1.77.12 2.65zm93.99 100.66h-124.19c3.03 31.6 29.72 56.39 62.1 56.39 32.37 0 59.06-24.8 62.09-56.39zm27.69-12v-34.84c-20.77-28.87-54.19-46.06-89.78-46.06-49.72 0-93.39 33.6-106.53 80.9zm21.51 189.89h44.73l.34-2.41c1.67-12.03 11.7-20.75 23.84-20.75h8.56c12.14 0 22.17 8.73 23.84 20.75l.34 2.41h16.1c-5.66-5.69-11.47-11.41-17.14-16.96-4.85-4.76-9.87-9.68-14.68-14.49-11.17-11.17-11.17-29.34 0-40.5 11.17-11.17 29.34-11.17 40.5 0l29.46 29.46v-111.71-121.22c0-5.24-4.27-9.51-9.51-9.51h-24.61l-1.38 6.47c-2.85 13.38-11.26 22.03-21.43 22.03h-51.54c-10.17 0-18.58-8.65-21.43-22.03l-1.38-6.47h-24.61c-5.24 0-9.51 4.26-9.51 9.51v265.91c0 5.25 4.26 9.51 9.51 9.51zm89.41-.76c-.84-6.03-5.86-10.41-11.95-10.41h-8.56c-6.09 0-11.11 4.38-11.95 10.41l-.11.76h32.68zm111.75-59.9c0-7.02-1.52-12.9-4.92-19.05l-28.36-51.26v93.83c0 3.97-2.37 7.52-6.04 9.04s-7.85.69-10.66-2.12l-33.25-33.25c-6.49-6.49-17.05-6.49-23.53 0-6.49 6.49-6.49 17.04 0 23.53 4.77 4.77 9.77 9.67 14.6 14.41 6.73 6.6 13.7 13.43 20.37 20.22 6.32 6.43 9.15 14.89 7.98 23.83-.08.6-.12 1.22-.12 1.83 0 4.41 2.13 8.59 5.69 11.2 7.59 5.54 11.76 13.76 11.76 23.16v11.81h46.46v-127.18zm-127.98-25.49c27.31 0 49.54-22.22 49.54-49.54 0-18.46-10.16-35.26-26.51-43.86-2.93-1.54-6.56-.42-8.1 2.52-1.54 2.93-.42 6.56 2.52 8.1 12.39 6.52 20.09 19.26 20.09 33.24 0 20.7-16.84 37.54-37.54 37.54s-37.54-16.84-37.54-37.54c0-13.99 7.7-26.72 20.09-33.24 2.93-1.54 4.06-5.17 2.52-8.1s-5.17-4.06-8.1-2.52c-16.35 8.6-26.51 25.41-26.51 43.86 0 27.32 22.23 49.54 49.54 49.54zm0-73.52c3.31 0 6-2.69 6-6v-27.1c0-3.31-2.69-6-6-6s-6 2.69-6 6v27.1c0 3.31 2.69 6 6 6z"/></svg>