<?xml version="1.0" encoding="UTF-8" standalone="no"?>
<!-- Created with Inkscape (http://www.inkscape.org/) -->

<svg
   version="1.1"
   id="svg5523"
   xml:space="preserve"
   width="682.66669"
   height="682.66669"
   viewBox="0 0 682.66669 682.66669"
   xmlns="http://www.w3.org/2000/svg"
   xmlns:svg="http://www.w3.org/2000/svg"><defs
     id="defs5527"><clipPath
       clipPathUnits="userSpaceOnUse"
       id="clipPath5537"><path
         d="M 0,512 H 512 V 0 H 0 Z"
         id="path5535" /></clipPath></defs><g
     id="g5529"
     transform="matrix(1.3333333,0,0,-1.3333333,0,682.66667)"><g
       id="g5531"><g
         id="g5533"
         clip-path="url(#clipPath5537)"><g
           id="g5539"
           transform="translate(381.5,256)"><path
             d="M 0,0 C 0,69.312 -56.188,125.5 -125.5,125.5 -194.812,125.5 -251,69.312 -251,0 c 0,-69.312 56.188,-125.5 125.5,-125.5 C -56.188,-125.5 0,-69.312 0,0 Z"
             style="fill:none;stroke:#000000;stroke-width:15;stroke-linecap:round;stroke-linejoin:round;stroke-miterlimit:10;stroke-dasharray:none;stroke-opacity:1"
             id="path5541" /></g><g
           id="g5543"
           transform="translate(223.5,469.5713)"><path
             d="M 0,0 C -26.955,-4.067 -52.278,-13.117 -75,-26.18"
             style="fill:none;stroke:#000000;stroke-width:15;stroke-linecap:round;stroke-linejoin:round;stroke-miterlimit:10;stroke-dasharray:none;stroke-opacity:1"
             id="path5545" /></g><g
           id="g5547"
           transform="translate(363.5,443.3916)"><path
             d="M 0,0 C -22.604,12.995 -47.783,22.019 -74.582,26.116"
             style="fill:none;stroke:#000000;stroke-width:15;stroke-linecap:round;stroke-linejoin:round;stroke-miterlimit:10;stroke-dasharray:none;stroke-opacity:1"
             id="path5549" /></g><g
           id="g5551"
           transform="translate(469.5098,288.9014)"><path
             d="M 0,0 C -4.108,26.883 -13.172,52.134 -26.23,74.793"
             style="fill:none;stroke:#000000;stroke-width:15;stroke-linecap:round;stroke-linejoin:round;stroke-miterlimit:10;stroke-dasharray:none;stroke-opacity:1"
             id="path5553" /></g><g
           id="g5555"
           transform="translate(443.1553,148.0908)"><path
             d="M 0,0 C 13.104,22.679 22.205,47.962 26.336,74.883"
             style="fill:none;stroke:#000000;stroke-width:15;stroke-linecap:round;stroke-linejoin:round;stroke-miterlimit:10;stroke-dasharray:none;stroke-opacity:1"
             id="path5557" /></g><g
           id="g5559"
           transform="translate(289.4004,42.5664)"><path
             d="M 0,0 C 26.619,4.132 51.631,13.125 74.1,26.042"
             style="fill:none;stroke:#000000;stroke-width:15;stroke-linecap:round;stroke-linejoin:round;stroke-miterlimit:10;stroke-dasharray:none;stroke-opacity:1"
             id="path5561" /></g><g
           id="g5563"
           transform="translate(149.4971,68.0391)"><path
             d="M 0,0 C 22.211,-12.612 46.878,-21.402 73.105,-25.473"
             style="fill:none;stroke:#000000;stroke-width:15;stroke-linecap:round;stroke-linejoin:round;stroke-miterlimit:10;stroke-dasharray:none;stroke-opacity:1"
             id="path5565" /></g><g
           id="g5567"
           transform="translate(42.5176,222.9199)"><path
             d="M 0,0 C 4.054,-26.379 12.88,-51.184 25.569,-73.507"
             style="fill:none;stroke:#000000;stroke-width:15;stroke-linecap:round;stroke-linejoin:round;stroke-miterlimit:10;stroke-dasharray:none;stroke-opacity:1"
             id="path5569" /></g><g
           id="g5571"
           transform="translate(68.0205,362.4707)"><path
             d="M 0,0 C -12.653,-22.291 -21.455,-47.056 -25.503,-73.387"
             style="fill:none;stroke:#000000;stroke-width:15;stroke-linecap:round;stroke-linejoin:round;stroke-miterlimit:10;stroke-dasharray:none;stroke-opacity:1"
             id="path5573" /></g><g
           id="g5575"
           transform="translate(327.8359,256)"><path
             d="m 0,0 c 0,69.312 -32.162,125.5 -71.836,125.5 -39.674,0 -71.836,-56.188 -71.836,-125.5 0,-69.312 32.162,-125.5 71.836,-125.5 C -32.162,-125.5 0,-69.312 0,0 Z"
             style="fill:none;stroke:#000000;stroke-width:15;stroke-linecap:round;stroke-linejoin:round;stroke-miterlimit:10;stroke-dasharray:none;stroke-opacity:1"
             id="path5577" /></g><g
           id="g5579"
           transform="translate(256,184.1641)"><path
             d="m 0,0 c 69.312,0 125.5,32.162 125.5,71.836 0,39.674 -56.188,71.836 -125.5,71.836 -69.312,0 -125.5,-32.162 -125.5,-71.836 C -125.5,32.162 -69.312,0 0,0 Z"
             style="fill:none;stroke:#000000;stroke-width:15;stroke-linecap:round;stroke-linejoin:round;stroke-miterlimit:10;stroke-dasharray:none;stroke-opacity:1"
             id="path5581" /></g><g
           id="g5583"
           transform="translate(256,131.0684)"><path
             d="M 0,0 V 249.863"
             style="fill:none;stroke:#000000;stroke-width:15;stroke-linecap:round;stroke-linejoin:round;stroke-miterlimit:10;stroke-dasharray:none;stroke-opacity:1"
             id="path5585" /></g><g
           id="g5587"
           transform="translate(130.7842,256)"><path
             d="M 0,0 H 249.864"
             style="fill:none;stroke:#000000;stroke-width:15;stroke-linecap:round;stroke-linejoin:round;stroke-miterlimit:10;stroke-dasharray:none;stroke-opacity:1"
             id="path5589" /></g><g
           id="g5591"
           transform="translate(503.0381,448.3535)"><path
             d="m 0,0 c -6.63,32.053 -35.021,56.146 -69.038,56.146 -38.937,0 -70.5,-31.563 -70.5,-70.5 0,-38.936 31.563,-70.5 70.5,-70.5 31.934,0 58.907,21.231 67.577,50.348"
             style="fill:none;stroke:#000000;stroke-width:15;stroke-linecap:round;stroke-linejoin:round;stroke-miterlimit:10;stroke-dasharray:none;stroke-opacity:1"
             id="path5593" /></g><g
           id="g5595"
           transform="translate(470.0254,374.0752)"><path
             d="M 0,0 V 8.024 C 0,16.991 -7.27,24.26 -16.236,24.26 h -39.578 c -8.967,0 -16.237,-7.269 -16.237,-16.236 V 0.042"
             style="fill:none;stroke:#000000;stroke-width:15;stroke-linecap:round;stroke-linejoin:round;stroke-miterlimit:10;stroke-dasharray:none;stroke-opacity:1"
             id="path5597" /></g><g
           id="g5599"
           transform="translate(456.6611,451.625)"><path
             d="m 0,0 c 0,12.516 -10.146,22.661 -22.661,22.661 -12.516,0 -22.661,-10.145 -22.661,-22.661 0,-12.516 10.145,-22.661 22.661,-22.661 C -10.146,-22.661 0,-12.516 0,0 Z"
             style="fill:none;stroke:#000000;stroke-width:15;stroke-linecap:round;stroke-linejoin:round;stroke-miterlimit:10;stroke-dasharray:none;stroke-opacity:1"
             id="path5601" /></g><g
           id="g5603"
           transform="translate(7.8164,440.7256)"><path
             d="m 0,0 c -0.209,-2.214 -0.316,-4.457 -0.316,-6.726 0,-38.936 31.563,-70.5 70.5,-70.5 38.936,0 70.5,31.564 70.5,70.5 0,38.937 -31.564,70.5 -70.5,70.5 -24.317,0 -45.758,-12.311 -58.432,-31.041"
             style="fill:none;stroke:#000000;stroke-width:15;stroke-linecap:round;stroke-linejoin:round;stroke-miterlimit:10;stroke-dasharray:none;stroke-opacity:1"
             id="path5605" /></g><g
           id="g5607"
           transform="translate(114.0254,374.0752)"><path
             d="M 0,0 V 8.024 C 0,16.991 -7.27,24.26 -16.236,24.26 h -39.578 c -8.967,0 -16.237,-7.269 -16.237,-16.236 V 0.042"
             style="fill:none;stroke:#000000;stroke-width:15;stroke-linecap:round;stroke-linejoin:round;stroke-miterlimit:10;stroke-dasharray:none;stroke-opacity:1"
             id="path5609" /></g><g
           id="g5611"
           transform="translate(100.6611,451.625)"><path
             d="m 0,0 c 0,12.516 -10.146,22.661 -22.661,22.661 -12.516,0 -22.661,-10.145 -22.661,-22.661 0,-12.516 10.145,-22.661 22.661,-22.661 C -10.146,-22.661 0,-12.516 0,0 Z"
             style="fill:none;stroke:#000000;stroke-width:15;stroke-linecap:round;stroke-linejoin:round;stroke-miterlimit:10;stroke-dasharray:none;stroke-opacity:1"
             id="path5613" /></g><g
           id="g5615"
           transform="translate(504.5,78)"><path
             d="M 0,0 C 0,38.937 -31.563,70.5 -70.5,70.5 -109.437,70.5 -141,38.937 -141,0 c 0,-38.937 31.563,-70.5 70.5,-70.5 C -31.563,-70.5 0,-38.937 0,0 Z"
             style="fill:none;stroke:#000000;stroke-width:15;stroke-linecap:round;stroke-linejoin:round;stroke-miterlimit:10;stroke-dasharray:none;stroke-opacity:1"
             id="path5617" /></g><g
           id="g5619"
           transform="translate(470.0254,18.0752)"><path
             d="M 0,0 V 8.024 C 0,16.991 -7.27,24.26 -16.236,24.26 h -39.578 c -8.967,0 -16.237,-7.269 -16.237,-16.236 V 0.042"
             style="fill:none;stroke:#000000;stroke-width:15;stroke-linecap:round;stroke-linejoin:round;stroke-miterlimit:10;stroke-dasharray:none;stroke-opacity:1"
             id="path5621" /></g><g
           id="g5623"
           transform="translate(456.6611,95.625)"><path
             d="m 0,0 c 0,12.516 -10.146,22.661 -22.661,22.661 -12.516,0 -22.661,-10.145 -22.661,-22.661 0,-12.516 10.145,-22.661 22.661,-22.661 C -10.146,-22.661 0,-12.516 0,0 Z"
             style="fill:none;stroke:#000000;stroke-width:15;stroke-linecap:round;stroke-linejoin:round;stroke-miterlimit:10;stroke-dasharray:none;stroke-opacity:1"
             id="path5625" /></g><g
           id="g5627"
           transform="translate(7.8115,84.6709)"><path
             d="m 0,0 c -0.206,-2.195 -0.312,-4.421 -0.312,-6.671 0,-38.936 31.564,-70.5 70.5,-70.5 38.937,0 70.5,31.564 70.5,70.5 0,38.937 -31.563,70.5 -70.5,70.5 -24.444,0 -45.982,-12.44 -58.629,-31.336"
             style="fill:none;stroke:#000000;stroke-width:15;stroke-linecap:round;stroke-linejoin:round;stroke-miterlimit:10;stroke-dasharray:none;stroke-opacity:1"
             id="path5629" /></g><g
           id="g5631"
           transform="translate(114.0254,18.0752)"><path
             d="M 0,0 V 8.024 C 0,16.991 -7.27,24.26 -16.236,24.26 h -39.578 c -8.967,0 -16.237,-7.269 -16.237,-16.236 V 0.042"
             style="fill:none;stroke:#000000;stroke-width:15;stroke-linecap:round;stroke-linejoin:round;stroke-miterlimit:10;stroke-dasharray:none;stroke-opacity:1"
             id="path5633" /></g><g
           id="g5635"
           transform="translate(100.6611,95.625)"><path
             d="m 0,0 c 0,12.516 -10.146,22.661 -22.661,22.661 -12.516,0 -22.661,-10.145 -22.661,-22.661 0,-12.516 10.145,-22.661 22.661,-22.661 C -10.146,-22.661 0,-12.516 0,0 Z"
             style="fill:none;stroke:#000000;stroke-width:15;stroke-linecap:round;stroke-linejoin:round;stroke-miterlimit:10;stroke-dasharray:none;stroke-opacity:1"
             id="path5637" /></g><g
           id="g5639"
           transform="translate(72.5,256)"><path
             d="M 0,0 C 0,17.949 -14.551,32.5 -32.5,32.5 -50.449,32.5 -65,17.949 -65,0 -65,-17.949 -50.449,-32.5 -32.5,-32.5 -14.551,-32.5 0,-17.949 0,0 Z"
             style="fill:none;stroke:#000000;stroke-width:15;stroke-linecap:round;stroke-linejoin:round;stroke-miterlimit:10;stroke-dasharray:none;stroke-opacity:1"
             id="path5641" /></g><g
           id="g5643"
           transform="translate(504.5,256)"><path
             d="M 0,0 C 0,17.949 -14.551,32.5 -32.5,32.5 -50.449,32.5 -65,17.949 -65,0 -65,-17.949 -50.449,-32.5 -32.5,-32.5 -14.551,-32.5 0,-17.949 0,0 Z"
             style="fill:none;stroke:#000000;stroke-width:15;stroke-linecap:round;stroke-linejoin:round;stroke-miterlimit:10;stroke-dasharray:none;stroke-opacity:1"
             id="path5645" /></g><g
           id="g5647"
           transform="translate(256,72.5)"><path
             d="M 0,0 C -17.949,0 -32.5,-14.551 -32.5,-32.5 -32.5,-50.449 -17.949,-65 0,-65 17.949,-65 32.5,-50.449 32.5,-32.5 32.5,-14.551 17.949,0 0,0 Z"
             style="fill:none;stroke:#000000;stroke-width:15;stroke-linecap:round;stroke-linejoin:round;stroke-miterlimit:10;stroke-dasharray:none;stroke-opacity:1"
             id="path5649" /></g><g
           id="g5651"
           transform="translate(256,504.5)"><path
             d="M 0,0 C -17.949,0 -32.5,-14.551 -32.5,-32.5 -32.5,-50.449 -17.949,-65 0,-65 17.949,-65 32.5,-50.449 32.5,-32.5 32.5,-14.551 17.949,0 0,0 Z"
             style="fill:none;stroke:#000000;stroke-width:15;stroke-linecap:round;stroke-linejoin:round;stroke-miterlimit:10;stroke-dasharray:none;stroke-opacity:1"
             id="path5653" /></g><g
           id="g5655"
           transform="translate(256,439.5)"><path
             d="M 0,0 V -58.568"
             style="fill:none;stroke:#000000;stroke-width:15;stroke-linecap:round;stroke-linejoin:round;stroke-miterlimit:10;stroke-dasharray:none;stroke-opacity:1"
             id="path5657" /></g><g
           id="g5659"
           transform="translate(439.5,256)"><path
             d="M 0,0 H -58.852"
             style="fill:none;stroke:#000000;stroke-width:15;stroke-linecap:round;stroke-linejoin:round;stroke-miterlimit:10;stroke-dasharray:none;stroke-opacity:1"
             id="path5661" /></g><g
           id="g5663"
           transform="translate(72.5,256)"><path
             d="M 0,0 H 58.284"
             style="fill:none;stroke:#000000;stroke-width:15;stroke-linecap:round;stroke-linejoin:round;stroke-miterlimit:10;stroke-dasharray:none;stroke-opacity:1"
             id="path5665" /></g><g
           id="g5667"
           transform="translate(256,72.5)"><path
             d="M 0,0 V 58.568"
             style="fill:none;stroke:#000000;stroke-width:15;stroke-linecap:round;stroke-linejoin:round;stroke-miterlimit:10;stroke-dasharray:none;stroke-opacity:1"
             id="path5669" /></g><g
           id="g5671"
           transform="translate(344.7422,344.7422)"><path
             d="M 0,0 39.462,39.462"
             style="fill:none;stroke:#000000;stroke-width:15;stroke-linecap:round;stroke-linejoin:round;stroke-miterlimit:10;stroke-dasharray:none;stroke-opacity:1"
             id="path5673" /></g><g
           id="g5675"
           transform="translate(127.7959,384.2041)"><path
             d="M 0,0 39.462,-39.462"
             style="fill:none;stroke:#000000;stroke-width:15;stroke-linecap:round;stroke-linejoin:round;stroke-miterlimit:10;stroke-dasharray:none;stroke-opacity:1"
             id="path5677" /></g><g
           id="g5679"
           transform="translate(127.7959,127.7959)"><path
             d="M 0,0 38.704,38.704"
             style="fill:none;stroke:#000000;stroke-width:15;stroke-linecap:round;stroke-linejoin:round;stroke-miterlimit:10;stroke-dasharray:none;stroke-opacity:1"
             id="path5681" /></g><g
           id="g5683"
           transform="translate(345.5,166.5)"><path
             d="M 0,0 38.704,-38.704"
             style="fill:none;stroke:#000000;stroke-width:15;stroke-linecap:round;stroke-linejoin:round;stroke-miterlimit:10;stroke-dasharray:none;stroke-opacity:1"
             id="path5685" /></g></g></g></g></svg>
