<?xml version="1.0" encoding="UTF-8" standalone="no"?>
<!-- Created with Inkscape (http://www.inkscape.org/) -->

<svg
   version="1.1"
   id="svg237"
   xml:space="preserve"
   width="682.66669"
   height="682.66669"
   viewBox="0 0 682.66669 682.66669"
   xmlns="http://www.w3.org/2000/svg"
   xmlns:svg="http://www.w3.org/2000/svg"><defs
     id="defs241"><clipPath
       clipPathUnits="userSpaceOnUse"
       id="clipPath251"><path
         d="M 0,512 H 512 V 0 H 0 Z"
         id="path249" /></clipPath></defs><g
     id="g243"
     transform="matrix(1.3333333,0,0,-1.3333333,0,682.66667)"><g
       id="g245"><g
         id="g247"
         clip-path="url(#clipPath251)"><g
           id="g253"
           transform="translate(349,140)"><path
             d="m 0,0 c 5.52,0 10,-4.48 10,-10 0,-5.52 -4.48,-10 -10,-10 -5.52,0 -10,4.48 -10,10 0,5.52 4.48,10 10,10"
             style="fill:#000000;fill-opacity:1;fill-rule:nonzero;stroke:none"
             id="path255" /></g><g
           id="g257"
           transform="translate(289,140)"><path
             d="m 0,0 c 5.52,0 10,-4.48 10,-10 0,-5.52 -4.48,-10 -10,-10 -5.52,0 -10,4.48 -10,10 0,5.52 4.48,10 10,10"
             style="fill:#000000;fill-opacity:1;fill-rule:nonzero;stroke:none"
             id="path259" /></g><g
           id="g261"
           transform="translate(250,452)"><path
             d="m 0,0 c 5.52,0 10,-4.48 10,-10 0,-5.52 -4.48,-10 -10,-10 -5.52,0 -10,4.48 -10,10 0,5.52 4.48,10 10,10"
             style="fill:#000000;fill-opacity:1;fill-rule:nonzero;stroke:none"
             id="path263" /></g><g
           id="g265"
           transform="translate(250,392)"><path
             d="m 0,0 c 5.52,0 10,-4.48 10,-10 0,-5.52 -4.48,-10 -10,-10 -5.52,0 -10,4.48 -10,10 0,5.52 4.48,10 10,10"
             style="fill:#000000;fill-opacity:1;fill-rule:nonzero;stroke:none"
             id="path267" /></g><g
           id="g269"
           transform="translate(442,10)"><path
             d="M 0,0 V 60 H -246 V 0"
             style="fill:none;stroke:#000000;stroke-width:20;stroke-linecap:round;stroke-linejoin:round;stroke-miterlimit:10;stroke-dasharray:none;stroke-opacity:1"
             id="path271" /></g><g
           id="g273"
           transform="translate(310,382)"><path
             d="M 0,0 V -120 H -300 V 120 H 0 Z"
             style="fill:none;stroke:#000000;stroke-width:20;stroke-linecap:round;stroke-linejoin:round;stroke-miterlimit:10;stroke-dasharray:none;stroke-opacity:1"
             id="path275" /></g><g
           id="g277"
           transform="translate(130,302)"><path
             d="m 0,0 c -44.826,0 -80,36.584 -80,80 0,43.424 35.181,80 80,80 44.826,0 80,-36.584 80,-80 C 80,36.576 44.819,0 0,0 Z"
             style="fill:none;stroke:#000000;stroke-width:20;stroke-linecap:round;stroke-linejoin:round;stroke-miterlimit:10;stroke-dasharray:none;stroke-opacity:1"
             id="path279" /></g><g
           id="g281"
           transform="translate(89.9927,312.7075)"><path
             d="M 0,0 80.015,138.585"
             style="fill:none;stroke:#000000;stroke-width:20;stroke-linecap:round;stroke-linejoin:round;stroke-miterlimit:10;stroke-dasharray:none;stroke-opacity:1"
             id="path283" /></g><g
           id="g285"
           transform="translate(89.9932,451.2925)"><path
             d="M 0,0 80.014,-138.585"
             style="fill:none;stroke:#000000;stroke-width:20;stroke-linecap:round;stroke-linejoin:round;stroke-miterlimit:10;stroke-dasharray:none;stroke-opacity:1"
             id="path287" /></g><g
           id="g289"
           transform="translate(50,382)"><path
             d="M 0,0 H 160"
             style="fill:none;stroke:#000000;stroke-width:20;stroke-linecap:round;stroke-linejoin:round;stroke-miterlimit:10;stroke-dasharray:none;stroke-opacity:1"
             id="path291" /></g><g
           id="g293"
           transform="translate(412,190)"><path
             d="M 0,0 V 192 H -102"
             style="fill:none;stroke:#000000;stroke-width:20;stroke-linecap:round;stroke-linejoin:round;stroke-miterlimit:10;stroke-dasharray:none;stroke-opacity:1"
             id="path295" /></g><g
           id="g297"
           transform="translate(310,442)"><path
             d="m 0,0 h 102 c 33.09,0 60,-26.91 60,-60 v -192"
             style="fill:none;stroke:#000000;stroke-width:20;stroke-linecap:round;stroke-linejoin:round;stroke-miterlimit:10;stroke-dasharray:none;stroke-opacity:1"
             id="path299" /></g><g
           id="g301"
           transform="translate(319)"><path
             d="m 0,0 c -5.518,0 -10,4.492 -10,10 0,5.508 4.482,10 10,10 C 5.518,20 10,15.508 10,10 10,4.492 5.518,0 0,0"
             style="fill:#000000;fill-opacity:1;fill-rule:nonzero;stroke:none"
             id="path303" /></g><g
           id="g305"
           transform="translate(274,10)"><path
             d="m 0,0 h -138 v 150 c 0,16.57 13.43,30 30,30 h 306 c 16.57,0 30,-13.43 30,-30 V 0 H 90"
             style="fill:none;stroke:#000000;stroke-width:20;stroke-linecap:round;stroke-linejoin:round;stroke-miterlimit:10;stroke-dasharray:none;stroke-opacity:1"
             id="path307" /></g></g></g></g></svg>
