<svg id="Layer_1" viewBox="0 0 64 64" xmlns="http://www.w3.org/2000/svg" data-name="Layer 1"><path d="m59.474 55.005c0-3.008-4.665-9.271-5.197-9.975-.188-.25-.484-.397-.798-.397s-.609.147-.798.397c-.532.705-5.198 6.968-5.198 9.976 0 3.306 2.689 5.996 5.996 5.996s5.995-2.689 5.995-5.996zm-9.991 0c0-1.526 2.202-5.14 3.996-7.676 1.794 2.536 3.995 6.15 3.995 7.676 0 2.203-1.792 3.996-3.995 3.996s-3.996-1.792-3.996-3.996z"/><path d="m60.458 37.068h-.838v-5.368c0-5.66-3.93-10.368-9.265-11.527l.615-.615c2.684.613 5.494-.182 7.457-2.146 2.16-2.16 2.9-5.3 1.932-8.196-.003-.01-.011-.016-.015-.026-.022-.061-.063-.114-.098-.171-.036-.058-.065-.119-.111-.168-.007-.008-.009-.018-.017-.025-.035-.035-.08-.05-.119-.079-.058-.043-.113-.089-.179-.119-.06-.027-.123-.037-.186-.052-.062-.014-.12-.033-.184-.036-.073-.003-.143.014-.216.027-.047.008-.094.002-.141.017-.01.003-.017.011-.026.015-.062.023-.115.064-.172.099-.057.036-.118.065-.166.111-.008.007-.018.009-.025.017l-3.83 3.83-3.022-3.022 3.83-3.831c.007-.007.009-.017.016-.025.046-.049.076-.11.112-.169.035-.057.075-.109.098-.17.004-.01.012-.016.015-.026.016-.048.009-.095.018-.144.013-.071.029-.14.026-.212-.003-.066-.022-.126-.037-.189-.014-.062-.024-.123-.05-.181-.03-.066-.076-.121-.119-.18-.029-.039-.044-.084-.079-.119-.007-.007-.018-.01-.025-.017-.048-.045-.109-.075-.166-.111-.057-.035-.11-.076-.172-.099-.01-.004-.016-.012-.026-.015-2.897-.971-6.036-.229-8.195 1.932-1.962 1.962-2.758 4.768-2.146 7.446l-6.363 6.363h-.578c-.949-1.265-2.212-2.283-3.644-2.944v-7.344h4.275c1.82 0 3.302-1.481 3.302-3.302s-1.481-3.301-3.302-3.301h-16.563c-1.82 0-3.302 1.481-3.302 3.301s1.481 3.302 3.302 3.302h4.278v7.341c-1.442.671-2.686 1.689-3.629 2.95h-8.646v-.613c0-3.331-2.71-6.04-6.04-6.04h-5.042c-.553 0-1 .448-1 1v23.721c0 .552.447 1 1 1h5.04c3.33 0 6.04-2.709 6.04-6.04v-.613h9.512c.427.43.883.835 1.394 1.182l-1.106 1.106c-2.678-.609-5.483.184-7.446 2.146-2.16 2.16-2.9 5.3-1.932 8.196.004.011.012.019.016.031.012.034.033.062.05.095.04.081.087.154.146.219.013.014.017.032.03.045.015.015.036.021.052.035.067.059.139.106.219.145.031.015.06.034.092.046.11.041.225.067.344.067.105 0 .212-.017.317-.052.01-.003.016-.011.026-.015.062-.023.115-.064.172-.099.057-.036.118-.065.166-.11.008-.007.018-.009.025-.017l3.83-3.83 3.022 3.022-3.83 3.83c-.008.008-.01.018-.017.026-.044.047-.073.106-.108.162-.036.058-.078.112-.101.175-.004.01-.012.016-.015.026-.016.048-.009.096-.018.144-.013.071-.029.14-.026.212.003.065.022.125.037.188.015.062.024.123.051.182.03.066.075.12.119.179.029.039.044.085.08.12.008.008.018.01.025.017.048.045.108.074.165.11.057.035.111.077.173.099.01.004.016.012.026.015.842.282 1.704.419 2.557.419 2.081 0 4.106-.818 5.639-2.351 1.964-1.963 2.76-4.773 2.146-7.457l8.307-8.308h8.992v4.758h-.712c-.851 0-1.542.691-1.542 1.542v3.83c0 .85.691 1.542 1.542 1.542h13.96c.851 0 1.542-.692 1.542-1.542v-3.83c0-.85-.691-1.542-1.542-1.542zm-39.684-30.768c0-.717.584-1.301 1.302-1.301h16.563c.718 0 1.302.584 1.302 1.301s-.584 1.302-1.302 1.302h-16.563c-.718 0-1.302-.584-1.302-1.302zm7.58 3.302h4.01v6.666c-.654-.14-1.323-.219-2.004-.219-.688 0-1.358.077-2.006.216v-6.664zm-20.314 27.359h-4.04v-21.72h4.04c2.228 0 4.04 1.812 4.04 4.04v1.584c0 .01-.006.019-.006.029s.006.019.006.029v10.357c0 .01-.006.019-.006.029s.006.019.006.029v1.584c0 2.228-1.812 4.04-4.04 4.04zm6.04-6.652v-8.416h7.486c-.48 1.137-.746 2.386-.746 3.696 0 1.702.455 3.311 1.252 4.719h-7.992zm8.74-4.719c0-4.158 3.383-7.54 7.54-7.54.873 0 1.724.146 2.529.433.023.012.048.022.073.033.008.004.016.007.024.011.009.004.017.008.026.012 1.567.581 2.917 1.705 3.79 3.136l-3.404 3.404c-.007.006-.013.013-.019.019l-6.935 6.935c-2.246-1.364-3.625-3.765-3.625-6.442zm5.021 15.025c.664 2.146.093 4.463-1.49 6.046-1.193 1.194-2.785 1.805-4.409 1.756l3.189-3.189c.188-.188.293-.442.293-.707s-.105-.52-.293-.707l-4.437-4.436c-.391-.391-1.023-.391-1.414 0l-3.188 3.188c-.048-1.623.562-3.215 1.755-4.408 1.583-1.582 3.896-2.151 6.035-1.49.356.11.741.015 1.003-.248l11.958-11.958c.006-.006.013-.013.019-.019l9.909-9.909c.263-.262.358-.648.248-1.003-.662-2.141-.092-4.453 1.49-6.035 1.192-1.193 2.784-1.803 4.407-1.755l-3.188 3.188c-.188.188-.293.442-.293.707s.105.52.293.707l4.437 4.436c.195.195.451.293.707.293s.512-.098.707-.293l3.188-3.188c.048 1.623-.562 3.215-1.755 4.407-1.583 1.583-3.899 2.154-6.046 1.49-.354-.109-.739-.014-1.003.248l-9.906 9.906c-.005.005-.011.011-.017.017l-11.952 11.953c-.263.262-.358.648-.248 1.003zm19.969-10.305h-7.591l8.375-8.375c5.093.399 9.027 4.604 9.027 9.765v5.368h-8.41v-5.368c0-.767-.628-1.39-1.4-1.39zm12.19 11.672h-13.044v-2.914h1.247s.005.001.007.001h10.41s.005-.001.007-.001h1.373z"/></svg>