<svg height="439pt" viewBox="-5 0 439 439.19205" width="439pt" xmlns="http://www.w3.org/2000/svg"><path d="m66.835938 302.527344h-60.738282c-3.316406 0-5.9999998 2.6875-5.9999998 6v117.472656c0 3.3125 2.6835938 6 5.9999998 6h60.738282c3.3125 0 6-2.6875 6-6v-54.472656l131.160156-51.347656c2.300781-.902344 3.8125-3.117188 3.8125-5.585938v-90.007812h27.746094c3.3125 0 6-2.6875 6-6v-35.617188h10.871093c3.3125 0 6-2.6875 6-6v-18.746094h79.484375c2.453125 0 4.660156-1.492187 5.570313-3.769531l8.839843-22.101563h48.574219c3.316407 0 6-2.6875 6-6v-64.113281c0-3.3125-2.683593-6-6-6h-18.128906l19.199219-48.007812c.742187-1.851563.515625-3.945313-.601563-5.59375-1.113281-1.648438-2.976562-2.636719-4.96875-2.636719h-289.070312c-19.453125.0234375-35.21875 15.789062-35.242188 35.246094v87.734375c.023438 19.453125 15.789063 35.222656 35.242188 35.242187h37.871093v18.746094c0 3.3125 2.6875 6 6 6h10.871094v35.617188c0 3.3125 2.6875 6 6 6h27.746094v85.914062l-122.976562 48.144531v-50.117187c0-3.3125-2.6875-6-6-6zm-6 117.472656h-48.738282v-105.472656h48.738282zm334.058593-351.761719v52.113281h-37.773437l20.84375-52.113281zm-287.570312 77.984375c-12.828125-.015625-23.226563-10.414062-23.242188-23.242187v-87.734375c.015625-12.832032 10.414063-23.230469 23.242188-23.246094h280.210937l-53.6875 134.222656zm49.871093 24.746094v-12.746094h89.234376v12.746094zm16.871094 41.617188v-29.617188h55.488282v29.617188zm0 0"/><path d="m114.074219 34.867188c-3.3125 0-6 2.6875-6 6v6.574218c0 3.3125 2.6875 6 6 6 3.316406 0 6-2.6875 6-6v-6.574218c0-3.3125-2.683594-6-6-6zm0 0"/><path d="m146.683594 34.867188c-3.3125 0-6 2.6875-6 6v6.574218c0 3.3125 2.6875 6 6 6 3.316406 0 6-2.6875 6-6v-6.574218c0-3.3125-2.683594-6-6-6zm0 0"/><path d="m179.296875 34.867188c-3.316406 0-6 2.6875-6 6v6.574218c0 3.3125 2.683594 6 6 6 3.3125 0 6-2.6875 6-6v-6.574218c0-3.3125-2.6875-6-6-6zm0 0"/><path d="m211.90625 34.867188c-3.3125 0-6 2.6875-6 6v6.574218c0 3.3125 2.6875 6 6 6 3.316406 0 6-2.6875 6-6v-6.574218c0-3.3125-2.683594-6-6-6zm0 0"/><path d="m244.519531 34.867188c-3.316406 0-6 2.6875-6 6v6.574218c0 3.3125 2.683594 6 6 6 3.3125 0 6-2.6875 6-6v-6.574218c0-3.3125-2.6875-6-6-6zm0 0"/><path d="m277.128906 34.867188c-3.3125 0-6 2.6875-6 6v6.574218c0 3.3125 2.6875 6 6 6s6-2.6875 6-6v-6.574218c0-3.3125-2.6875-6-6-6zm0 0"/><path d="m309.738281 34.867188c-3.3125 0-6 2.6875-6 6v6.574218c0 3.3125 2.6875 6 6 6s6-2.6875 6-6v-6.574218c0-3.3125-2.6875-6-6-6zm0 0"/><path d="m342.351562 53.441406c3.3125 0 6-2.6875 6-6v-6.574218c0-3.3125-2.6875-6-6-6-3.316406 0-6 2.6875-6 6v6.574218c0 3.3125 2.683594 6 6 6zm0 0"/><path d="m284.761719 415.605469c13.890625 10.140625 29.296875 18.019531 45.648437 23.34375 1.082032.316406 2.230469.324219 3.316406.015625 16.828126-5.285156 32.738282-13.144532 47.164063-23.300782 31.316406-22.140624 47.871094-51.554687 47.871094-85.058593v-46.25c.003906-5.804688-3.410157-11.070313-8.707031-13.441407-29.332032-12.953124-57.109376-29.164062-82.816407-48.328124-2.132812-1.601563-5.066406-1.601563-7.199219 0-25.707031 19.164062-53.484374 35.375-82.816406 48.328124-5.300781 2.371094-8.710937 7.636719-8.707031 13.441407v46.246093c0 33.46875 15.992187 62.863282 46.246094 85.003907zm-34.246094-131.25c-.003906-1.066407.617187-2.035157 1.585937-2.472657 28.777344-12.726562 56.113282-28.488281 81.539063-47.027343 25.421875 18.535156 52.757813 34.300781 81.535156 47.023437.96875.441406 1.589844 1.410156 1.585938 2.476563v46.246093c0 22.339844-8.0625 42.140626-24.015625 59.105469-.316406-3.179687-3.070313-5.558593-6.261719-5.402343-3.195313.152343-5.703125 2.785156-5.710937 5.980468v5.449219c0 1.410156.496093 2.773437 1.402343 3.851563-2.515625 2.074218-5.160156 4.105468-7.9375 6.082031-12.941406 9.066406-27.125 16.21875-42.113281 21.230469-14.484375-5.03125-28.152344-12.167969-40.558594-21.183594-2.453125-1.804688-4.796875-3.652344-7.03125-5.542969 1.253906-1.136719 1.96875-2.746094 1.96875-4.433594v-5.449219c0-3.3125-2.6875-6-6-6-3.316406 0-6 2.6875-6 6v.328126c-15.929687-17.160157-23.988281-37.265626-23.988281-60.015626zm0 0"/><path d="m333.640625 384.289062c-3.316406 0-6 2.6875-6 6v5.449219c0 3.3125 2.683594 6 6 6 3.3125 0 6-2.6875 6-6v-5.449219c0-3.3125-2.6875-6-6-6zm0 0"/><path d="m351.351562 384.289062c-3.316406 0-6 2.6875-6 6v5.449219c0 3.3125 2.683594 6 6 6 3.3125 0 6-2.6875 6-6v-5.449219c0-3.3125-2.6875-6-6-6zm0 0"/><path d="m363.0625 390.289062v5.449219c0 3.3125 2.6875 6 6 6s6-2.6875 6-6v-5.449219c0-3.3125-2.6875-6-6-6s-6 2.6875-6 6zm0 0"/><path d="m315.925781 384.289062c-3.3125 0-6 2.6875-6 6v5.449219c0 3.3125 2.6875 6 6 6 3.316407 0 6-2.6875 6-6v-5.449219c0-3.3125-2.683593-6-6-6zm0 0"/><path d="m298.214844 401.738281c3.3125 0 6-2.6875 6-6v-5.449219c0-3.3125-2.6875-6-6-6s-6 2.6875-6 6v5.449219c0 3.3125 2.6875 6 6 6zm0 0"/><path d="m321.746094 352.269531c2.34375 2.34375 6.144531 2.34375 8.488281 0l35.472656-35.46875c2.3125-2.347656 2.296875-6.121093-.035156-8.453125-2.328125-2.328125-6.101563-2.34375-8.449219-.03125l-31.226562 31.222656-15.933594-15.933593c-2.34375-2.34375-6.144531-2.34375-8.488281 0s-2.34375 6.140625 0 8.484375zm0 0"/></svg>