<svg id="Layer_1" enable-background="new 0 0 66 66" height="512" viewBox="0 0 66 66" width="512" xmlns="http://www.w3.org/2000/svg"><g><path d="m19.09 16.25c.89 0 1.6-.72 1.6-1.6s-.72-1.6-1.6-1.6-1.6.72-1.6 1.6.72 1.6 1.6 1.6z"/><path d="m24.66 16.25c.89 0 1.6-.72 1.6-1.6s-.72-1.6-1.6-1.6-1.6.72-1.6 1.6.71 1.6 1.6 1.6z"/><path d="m30.22 16.25c.89 0 1.6-.72 1.6-1.6s-.72-1.6-1.6-1.6c-.89 0-1.6.72-1.6 1.6s.71 1.6 1.6 1.6z"/><path d="m35.78 16.25c.89 0 1.6-.72 1.6-1.6s-.72-1.6-1.6-1.6c-.89 0-1.6.72-1.6 1.6s.72 1.6 1.6 1.6z"/><path d="m41.34 16.25c.89 0 1.6-.72 1.6-1.6s-.72-1.6-1.6-1.6-1.6.72-1.6 1.6.72 1.6 1.6 1.6z"/><path d="m46.91 16.25c.89 0 1.6-.72 1.6-1.6s-.72-1.6-1.6-1.6-1.6.72-1.6 1.6.71 1.6 1.6 1.6z"/><path d="m21.87 21.38c.89 0 1.6-.72 1.6-1.6s-.72-1.6-1.6-1.6-1.6.72-1.6 1.6.72 1.6 1.6 1.6z"/><path d="m27.44 21.38c.89 0 1.6-.72 1.6-1.6s-.72-1.6-1.6-1.6c-.89 0-1.6.72-1.6 1.6s.71 1.6 1.6 1.6z"/><path d="m33 21.38c.89 0 1.6-.72 1.6-1.6s-.72-1.6-1.6-1.6-1.6.72-1.6 1.6.71 1.6 1.6 1.6z"/><path d="m38.56 21.38c.89 0 1.6-.72 1.6-1.6s-.72-1.6-1.6-1.6-1.6.72-1.6 1.6.72 1.6 1.6 1.6z"/><path d="m44.13 21.38c.89 0 1.6-.72 1.6-1.6s-.72-1.6-1.6-1.6-1.6.72-1.6 1.6.71 1.6 1.6 1.6z"/><path d="m19.09 26.52c.89 0 1.6-.72 1.6-1.6 0-.89-.72-1.6-1.6-1.6s-1.6.72-1.6 1.6.72 1.6 1.6 1.6z"/><path d="m24.66 26.52c.89 0 1.6-.72 1.6-1.6 0-.89-.72-1.6-1.6-1.6s-1.6.72-1.6 1.6c-.01.88.71 1.6 1.6 1.6z"/><path d="m30.22 26.52c.89 0 1.6-.72 1.6-1.6 0-.89-.72-1.6-1.6-1.6-.89 0-1.6.72-1.6 1.6-.01.88.71 1.6 1.6 1.6z"/><path d="m35.78 26.52c.89 0 1.6-.72 1.6-1.6 0-.89-.72-1.6-1.6-1.6-.89 0-1.6.72-1.6 1.6s.72 1.6 1.6 1.6z"/><path d="m41.34 26.52c.89 0 1.6-.72 1.6-1.6 0-.89-.72-1.6-1.6-1.6s-1.6.72-1.6 1.6.72 1.6 1.6 1.6z"/><path d="m46.91 23.31c-.89 0-1.6.72-1.6 1.6 0 .89.72 1.6 1.6 1.6s1.6-.72 1.6-1.6-.72-1.6-1.6-1.6z"/><circle cx="21.87" cy="30.05" r="1.6"/><circle cx="27.44" cy="30.05" r="1.6"/><path d="m33 28.45c-.89 0-1.6.72-1.6 1.6 0 .89.72 1.6 1.6 1.6s1.6-.72 1.6-1.6c0-.89-.71-1.6-1.6-1.6z"/><circle cx="38.56" cy="30.05" r="1.6"/><circle cx="44.13" cy="30.05" r="1.6"/><circle cx="19.09" cy="35.19" r="1.6"/><circle cx="24.66" cy="35.19" r="1.6"/><path d="m30.22 33.58c-.89 0-1.6.72-1.6 1.6 0 .89.72 1.6 1.6 1.6.89 0 1.6-.72 1.6-1.6s-.71-1.6-1.6-1.6z"/><circle cx="35.78" cy="35.19" r="1.6"/><circle cx="41.34" cy="35.19" r="1.6"/><circle cx="46.91" cy="35.19" r="1.6"/><path d="m62.88 28.18c-1.37-1.37-3.19-2.12-5.14-2.12-.71 0-1.39.11-2.04.3.25-8.67-.93-14.37-3.51-16.95-3.83-3.84-12.42-5.2-19.19-5.2s-15.36 1.36-19.19 5.19c-2.58 2.58-3.76 8.28-3.51 16.95-.66-.19-1.34-.29-2.04-.29-4 0-7.26 3.26-7.26 7.26v24.4c0 .55.45 1 1 1h2.47v2.07c0 .55.45 1 1 1h7.32c.55 0 1-.45 1-1v-2.07h38.41v2.07c0 .55.45 1 1 1h7.32c.55 0 1-.45 1-1v-2.07h2.48c.55 0 1-.45 1-1v-24.4c0-1.95-.75-3.77-2.12-5.14zm-47.65-17.36c2.79-2.8 9.77-4.61 17.77-4.61s14.98 1.81 17.77 4.61c1.57 1.57 3.33 5.72 2.89 16.49-1.92 1.31-3.19 3.51-3.19 6.01v10.71c0 .62-.13 1.21-.33 1.76-11.24-3.31-23.05-3.31-34.29 0-.2-.55-.33-1.14-.33-1.76v-10.71c0-1.95-.75-3.77-2.13-5.14-.33-.33-.69-.61-1.06-.87-.43-10.77 1.33-14.92 2.9-16.49zm33.82 36.74c-.93.97-2.23 1.58-3.68 1.58h-24.74c-1.45 0-2.75-.61-3.68-1.58 10.53-2.99 21.57-2.99 32.1 0zm-37.25 12.23h-5.33v-1.07h5.32v1.07zm47.73 0h-5.32v-1.07h5.32zm3.47-3.07h-2.47-7.32-40.41-7.33-2.47v-23.4c0-2.9 2.36-5.26 5.26-5.26 1.4 0 2.72.55 3.72 1.54.99.99 1.54 2.31 1.54 3.72v10.71c0 3.92 3.19 7.11 7.11 7.11h24.74c2.62 0 4.91-1.43 6.15-3.55.61-1.05.96-2.26.96-3.55v-10.72c0-2.9 2.36-5.26 5.26-5.26 1.41 0 2.73.55 3.72 1.54s1.54 2.31 1.54 3.72z"/></g></svg>