<svg id="Layer_1" enable-background="new 0 0 66 66" height="512" viewBox="0 0 66 66" width="512" xmlns="http://www.w3.org/2000/svg"><g><path d="m59.1 4.3v-2.2c0-.5-.5-1-1-1h-24.4c-.5 0-1 .5-1 1v2.1h-4.7-.1s0 0-.1 0l-11.3 2.2c-2.1.4-3.7 2.3-3.7 4.4v44.2h-2.1c-2.2 0-3.9-1.8-3.9-3.9v-10.6c2.1-.4 3.7-2.3 3.7-4.5v-3c0-.5-.4-1-1-1h-.9v-2.2c0-.5-.4-1-1-1-.5 0-1 .5-1 1v2.2h-1.6v-2.2c0-.5-.4-1-1-1s-1 .5-1 1v2.2h-.9c-.6 0-1 .5-1 1v3c0 2.2 1.6 4.1 3.7 4.5v10.6c0 3.3 2.7 5.9 5.9 5.9h2.1v1.3c0 2.2 1.6 4 3.7 4.4l11.2 2.1h.2 31.1c3.2 0 5.8-2.6 5.8-5.8v-49c.1-3.1-2.5-5.7-5.7-5.7zm-32.1 58.3-10.1-1.9c-1.2-.2-2-1.2-2-2.4v-1.3h3.6c.4 1 1.3 1.7 2.5 1.7 1.5 0 2.7-1.2 2.7-2.7s-1.2-2.6-2.7-2.6c-1.1 0-2.1.7-2.5 1.6h-3.6v-44.2c0-1.2.9-2.2 2-2.4l10.1-1.9zm13-55.8h11.2c.6 0 1 .5 1 1 0 .6-.4 1-1 1h-11.2c-.6 0-1-.4-1-1s.5-1 1-1zm-1 5.9c0-.6.4-1 1-1h11.7c.6 0 1 .4 1 1v6.1c0 .6-.4 1-1 1h-11.7c-.6 0-1-.4-1-1zm23.9 46.3c0 2.1-1.7 3.8-3.8 3.8h-30.1v-56.5h3.7v9.9c0 7.3 5.9 13.2 13.2 13.2s13.2-5.9 13.2-13.2v-9.9c2 .1 3.7 1.7 3.7 3.8v48.9z"/><path d="m41 13.7h9.7v4.1h-9.7z"/><path d="m55.4 33.5h-19c-.6 0-1 .4-1 1s.4 1 1 1h19c.6 0 1-.4 1-1s-.4-1-1-1z"/><path d="m55.4 38.6h-19c-.6 0-1 .4-1 1s.4 1 1 1h19c.6 0 1-.4 1-1s-.4-1-1-1z"/><path d="m55.4 43.6h-19c-.6 0-1 .4-1 1s.4 1 1 1h19c.6 0 1-.4 1-1s-.4-1-1-1z"/><path d="m47.9 51.7c-.4.3-.5 1-.2 1.4.4.6.7 1.2.7 1.9 0 1.7-1.4 3.1-3.1 3.1s-3.1-1.4-3.1-3.1c0-.7.2-1.4.7-1.9.3-.4.3-1.1-.2-1.4-.4-.3-1.1-.3-1.4.2-.7.9-1.1 2-1.1 3.2 0 2.8 2.3 5.1 5.1 5.1s5.1-2.3 5.1-5.1c0-1.1-.4-2.3-1.1-3.2-.4-.5-1-.6-1.4-.2z"/><path d="m46.2 54.1v-4c0-.6-.4-1-1-1s-1 .4-1 1v4c0 .6.4 1 1 1s1-.5 1-1z"/><path d="m18.1 19.7 2.2.7h.3 2.8c.6 0 1-.4 1-1v-5.4c0-.5-.4-1-1-1h-2.8c-.1 0-.2 0-.3 0l-2.2.7c-.4.1-.7.5-.7 1v4.1c0 .4.3.7.7.9z"/><path d="m18.1 34.2 2.2.7h.3 2.8c.6 0 1-.4 1-1v-5.4c0-.6-.4-1-1-1h-2.8c-.1 0-.2 0-.3 0l-2.2.7c-.4.1-.7.5-.7 1v4.1c0 .4.3.8.7.9z"/><path d="m18.1 48.8 2.2.7h.3 2.8c.6 0 1-.4 1-1v-5.4c0-.6-.4-1-1-1h-2.8c-.1 0-.2 0-.3 0l-2.2.7c-.4.1-.7.5-.7 1v4.1c0 .4.3.8.7.9z"/></g></svg>