<?xml version="1.0" encoding="iso-8859-1"?>
<!-- Generator: Adobe Illustrator 19.0.0, SVG Export Plug-In . SVG Version: 6.00 Build 0)  -->
<svg version="1.1" id="Capa_1" xmlns="http://www.w3.org/2000/svg" xmlns:xlink="http://www.w3.org/1999/xlink" x="0px" y="0px"
	 viewBox="0 0 512 512" style="enable-background:new 0 0 512 512;" xml:space="preserve">
<g>
	<g>
		<g>
			<path d="M504,224h-16c4.418,0,8-3.582,8-8V104c0-4.418-3.582-8-8-8h-80c-4.418,0-8,3.582-8,8v112c0,4.418,3.582,8,8,8h-64v-8h40
				c4.418,0,8-3.582,8-8V48c0-4.418-3.582-8-8-8H128c-4.418,0-8,3.582-8,8v160c0,4.418,3.582,8,8,8h40v8h-64c4.418,0,8-3.582,8-8
				V104c0-4.418-3.582-8-8-8H24c-4.418,0-8,3.582-8,8v112c0,4.418,3.582,8,8,8H8c-4.418,0-8,3.582-8,8v32c0,4.418,3.582,8,8,8h40
				v192c0,4.418,3.582,8,8,8s8-3.582,8-8V304h184v16h-72c-4.418,0-8,3.582-8,8c0.026,22.08,17.92,39.974,40,40h40v88h-72
				c-4.418,0-8,3.582-8,8s3.582,8,8,8h160c4.418,0,8-3.582,8-8s-3.582-8-8-8h-72v-88h40c22.08-0.026,39.974-17.92,40-40
				c0-4.418-3.582-8-8-8h-72v-16h184v160c0,4.418,3.582,8,8,8s8-3.582,8-8V272h40c4.418,0,8-3.582,8-8v-32
				C512,227.582,508.418,224,504,224z M416,112h64v96h-64V112z M376,200h-32v-16h32V200z M136,200v-16h32v16H136z M32,112h64v96H32
				V112z M16,256v-16h152v16H16z M64,288v-16h104.8c1.234,5.821,3.763,11.29,7.4,16H64z M326.632,336
				c-3.403,9.582-12.464,15.988-22.632,16h-96c-10.168-0.012-19.229-6.418-22.632-16H326.632z M328,264c0,13.255-10.745,24-24,24
				h-96c-13.255,0-24-10.745-24-24V136c0-13.255,10.745-24,24-24h96c13.255,0,24,10.745,24,24V264z M304,96h-96
				c-22.08,0.026-39.974,17.92-40,40v32h-32V56h240v112h-32v-32C343.974,113.92,326.08,96.026,304,96z M448,288H335.792
				c3.637-4.71,6.166-10.179,7.4-16H448V288z M496,256H344v-16h152V256z"/>
			<path d="M64,120c-13.255,0-24,10.745-24,24s10.745,24,24,24s24-10.745,24-24S77.255,120,64,120z M64,152c-4.418,0-8-3.582-8-8
				s3.582-8,8-8s8,3.582,8,8S68.418,152,64,152z"/>
			<path d="M80,184H48c-4.418,0-8,3.582-8,8s3.582,8,8,8h32c4.418,0,8-3.582,8-8S84.418,184,80,184z"/>
			<path d="M448,120c-13.255,0-24,10.745-24,24s10.745,24,24,24s24-10.745,24-24S461.255,120,448,120z M448,152
				c-4.418,0-8-3.582-8-8s3.582-8,8-8s8,3.582,8,8S452.418,152,448,152z"/>
			<path d="M464,184h-32c-4.418,0-8,3.582-8,8s3.582,8,8,8h32c4.418,0,8-3.582,8-8S468.418,184,464,184z"/>
			<path d="M280,136h-8c-4.418,0-8,3.582-8,8s3.582,8,8,8h8c4.418,0,8-3.582,8-8S284.418,136,280,136z"/>
			<path d="M248,136h-8c-4.418,0-8,3.582-8,8s3.582,8,8,8h8c4.418,0,8-3.582,8-8S252.418,136,248,136z"/>
			<path d="M216,136h-8c-4.418,0-8,3.582-8,8s3.582,8,8,8h8c4.418,0,8-3.582,8-8S220.418,136,216,136z"/>
		</g>
	</g>
</g>
<g>
</g>
<g>
</g>
<g>
</g>
<g>
</g>
<g>
</g>
<g>
</g>
<g>
</g>
<g>
</g>
<g>
</g>
<g>
</g>
<g>
</g>
<g>
</g>
<g>
</g>
<g>
</g>
<g>
</g>
</svg>
