<svg enable-background="new 0 0 512 512" viewBox="0 0 512 512" xmlns="http://www.w3.org/2000/svg"><g id="_x32_2_Kitchen"><g><path d="m310.887 357.747h-109.774c-2.693 0-4.877 2.183-4.877 4.876v110.814c0 2.693 2.183 4.876 4.877 4.876h109.774c2.693 0 4.876-2.183 4.876-4.876v-110.814c0-2.693-2.183-4.876-4.876-4.876zm-4.877 110.814h-100.02v-101.061h100.02z"/><path d="m227.501 393.89h56.999c2.693 0 4.876-2.183 4.876-4.876s-2.183-4.877-4.876-4.877h-56.999c-2.693 0-4.877 2.184-4.877 4.877s2.184 4.876 4.877 4.876z"/><path d="m483.212 294.936h-129.325c-6.728 0-12.668 3.172-16.611 8.028-3.943-4.856-9.885-8.028-16.613-8.028h-129.324c-6.728 0-12.67 3.172-16.613 8.028-3.943-4.856-9.885-8.028-16.613-8.028h-129.325c-11.848 0-21.489 9.641-21.489 21.489v166.789c0 11.848 9.641 21.487 21.489 21.487h129.325c6.728 0 12.67-3.171 16.613-8.026 3.943 4.855 9.885 8.026 16.613 8.026h129.325c6.728 0 12.669-3.171 16.613-8.026 3.943 4.855 9.883 8.026 16.611 8.026h129.325c11.848 0 21.489-9.639 21.489-21.487v-166.789c0-11.848-9.641-21.489-21.49-21.489zm-466.161 76.424h152.798v56.918h-152.798zm0-54.935c0-6.472 5.265-11.736 11.736-11.736h129.325c6.472 0 11.736 5.265 11.736 11.736v45.181h-152.797zm141.062 178.524h-129.325c-6.472 0-11.736-5.265-11.736-11.734v-45.184h152.798v45.184c-.001 6.469-5.265 11.734-11.737 11.734zm162.551 0h-129.325c-6.472 0-11.736-5.265-11.736-11.734 0-87.743 0-51.31 0-166.789 0-6.472 5.265-11.736 11.736-11.736h129.325c6.472 0 11.736 5.265 11.736 11.736v166.789c0 6.469-5.265 11.734-11.736 11.734zm174.285-11.734c0 6.469-5.265 11.734-11.736 11.734h-129.326c-6.469 0-11.734-5.265-11.734-11.734v-166.79c0-6.472 5.265-11.736 11.734-11.736h129.325c6.472 0 11.736 5.265 11.736 11.736v166.79z"/><path d="m473.438 343.865h-17.649c-2.693 0-4.876 2.183-4.876 4.876s2.183 4.876 4.876 4.876h12.772v92.401h-12.772c-2.693 0-4.876 2.183-4.876 4.876s2.183 4.877 4.876 4.877h17.649c2.693 0 4.876-2.183 4.876-4.877v-102.152c0-2.693-2.183-4.877-4.876-4.877z"/><path d="m301.393 336.288c2.693 0 4.876-2.183 4.876-4.876v-7.515c0-2.693-2.183-4.876-4.876-4.876s-4.876 2.183-4.876 4.876v7.515c0 2.693 2.183 4.876 4.876 4.876z"/><path d="m271.132 336.288c2.693 0 4.876-2.183 4.876-4.876v-7.515c0-2.693-2.183-4.876-4.876-4.876s-4.876 2.183-4.876 4.876v7.515c-.001 2.693 2.183 4.876 4.876 4.876z"/><path d="m240.87 336.288c2.693 0 4.876-2.183 4.876-4.876v-7.515c0-2.693-2.183-4.876-4.876-4.876s-4.877 2.183-4.877 4.876v7.515c.001 2.693 2.184 4.876 4.877 4.876z"/><path d="m210.607 336.288c2.693 0 4.876-2.183 4.876-4.876v-7.515c0-2.693-2.183-4.876-4.876-4.876s-4.877 2.183-4.877 4.876v7.515c0 2.693 2.184 4.876 4.877 4.876z"/><path d="m116.927 328.271h-46.953c-2.693 0-4.877 2.183-4.877 4.876s2.183 4.876 4.877 4.876h46.953c2.693 0 4.877-2.183 4.877-4.876s-2.184-4.876-4.877-4.876z"/><path d="m116.927 394.942h-46.953c-2.693 0-4.877 2.183-4.877 4.876s2.183 4.876 4.877 4.876h46.953c2.693 0 4.877-2.183 4.877-4.876s-2.184-4.876-4.877-4.876z"/><path d="m116.927 461.613h-46.953c-2.693 0-4.877 2.183-4.877 4.876s2.183 4.876 4.877 4.876h46.953c2.693 0 4.877-2.183 4.877-4.876s-2.184-4.876-4.877-4.876z"/><path d="m484.512 7.32h-130.97c-11.132 0-20.189 9.055-20.189 20.187v125.451l-42.855-46.104v-94.679c0-2.693-2.183-4.877-4.876-4.877h-59.24c-2.693 0-4.876 2.183-4.876 4.877v94.679l-42.855 46.104v-125.451c0-11.132-9.058-20.187-20.189-20.187h-130.974c-11.132 0-20.189 9.055-20.189 20.187v167.311c0 11.132 9.058 20.189 20.189 20.189h457.024c11.132 0 20.189-9.058 20.189-20.189 0-41.733 0-123.46 0-167.311.001-11.132-9.057-20.187-20.189-20.187zm-141.406 20.187c0-5.753 4.681-10.434 10.436-10.434h130.97c5.755 0 10.436 4.681 10.436 10.434v141.459h-151.842c0-32.712 0-103.649 0-141.459zm-111.848-10.456h49.487v86.841h-49.487zm-214.207 10.456c0-5.753 4.681-10.434 10.436-10.434h130.973c5.755 0 10.436 4.681 10.436 10.434v141.459h-151.845zm0 167.311v-16.099h151.845v26.535h-141.408c-5.755 0-10.437-4.681-10.437-10.436zm161.599-27.536 49.856-53.637h54.992l49.856 53.637c0 .83 0 39.393 0 37.971h-154.704c0-.68 0-40.315 0-37.971zm316.299 27.536c0 5.755-4.681 10.436-10.436 10.436h-141.407v-26.535h151.843z"/><path d="m459.596 117.67c-2.693 0-4.876 2.183-4.876 4.877 0 2.693 2.183 4.877 4.876 4.877h18.473c2.693 0 4.876-2.183 4.876-4.877v-59.055c0-2.693-2.183-4.877-4.876-4.877h-18.473c-2.693 0-4.876 2.183-4.876 4.877s2.183 4.877 4.876 4.877h13.596v49.301z"/><path d="m152.017 58.616h-18.473c-2.693 0-4.877 2.183-4.877 4.877s2.183 4.877 4.877 4.877h13.596v49.301h-13.596c-2.693 0-4.877 2.183-4.877 4.877 0 2.693 2.183 4.877 4.877 4.877h18.473c2.693 0 4.876-2.183 4.876-4.877v-59.056c.001-2.693-2.183-4.876-4.876-4.876z"/></g></g><g id="Layer_1"/></svg>