<svg id="Layer_1" enable-background="new 0 0 64 64" viewBox="0 0 64 64" xmlns="http://www.w3.org/2000/svg"><g><path d="m48.65 33.66c-.04 0-.07 0-.11-.01-.05-.01-.1 0-.15 0h-6.73c-.55 0-1-.45-1-1s.45-1 1-1h6.73c.13 0 .24 0 .37.02.55.06.95.55.89 1.1-.06.51-.49.89-1 .89z"/></g><g><path d="m5.04 54.83c-.55 0-1-.45-1-1v-12.8c0-5.17 4.2-9.38 9.37-9.38h14.01c.55 0 1 .45 1 1s-.45 1-1 1h-14.01c-4.06 0-7.37 3.31-7.37 7.38v12.8c0 .55-.45 1-1 1z"/></g><g><path d="m49.25 37.51c-.1 0-.2-.01-.3-.05-.41-.13-.84-.19-1.29-.19h-6c-.55 0-1-.45-1-1s.45-1 1-1h6c.65 0 1.29.1 1.89.29.53.17.82.73.65 1.25-.13.43-.52.7-.95.7z"/></g><g><path d="m8.77 54.83c-.55 0-1-.45-1-1v-12.19c0-3.51 2.85-6.37 6.36-6.37h13.29c.55 0 1 .45 1 1s-.45 1-1 1h-13.29c-2.4 0-4.36 1.96-4.36 4.37v12.19c0 .55-.45 1-1 1z"/></g><g><path d="m23.9 33.65h-5.47c-.55 0-1-.45-1-1v-4.5c0-.55.45-1 1-1h5.47c.55 0 1 .45 1 1v4.5c0 .56-.45 1-1 1zm-4.48-2h3.47v-2.5h-3.47z"/></g><g><path d="m27.42 29.15h-17.29c-1.47 0-2.66-1.19-2.66-2.66v-12.9c0-1.47 1.19-2.66 2.66-2.66h23.75c1.47 0 2.66 1.19 2.66 2.66v6.95c0 .55-.45 1-1 1s-1-.45-1-1v-6.95c0-.36-.3-.66-.66-.66h-23.75c-.36 0-.66.3-.66.66v12.9c0 .37.29.66.66.66h17.29c.55 0 1 .45 1 1s-.45 1-1 1z"/></g><g><path d="m58.96 54.83h-10.56c-.53 0-.96-.41-1-.93l-.92-14c-.02-.28.08-.55.27-.75s.45-.32.73-.32h12.39c.28 0 .54.11.73.32s.29.47.27.75l-.92 14c-.03.52-.46.93-.99.93zm-9.62-2h8.69l.79-12h-10.27z"/></g><g><path d="m49.4 40.83c-.01 0-.02 0-.03 0-.55-.02-.99-.48-.97-1.03 0-.09.21-9.18-3.98-14.42-.28-.34-.29-.83-.04-1.19s.71-.52 1.13-.39c.33.11 8.2 2.75 8.2 16.02 0 .55-.45 1-1 1s-1-.45-1-1c0-5.84-1.62-9.35-3.28-11.4 2.12 5.3 1.98 11.12 1.98 11.43-.02.55-.47.98-1.01.98z"/></g><g><path d="m55.45 40.83c-.52 0-.96-.4-1-.93-1.24-18.28 6.27-21.66 6.59-21.79.42-.18.9-.05 1.18.31s.28.86 0 1.22c-4.24 5.46-2.76 19.94-2.74 20.09.06.55-.34 1.04-.89 1.1-.54.06-1.04-.34-1.1-.89-.05-.44-.82-7.98.41-14.51-1.11 3-1.91 7.54-1.45 14.33.04.55-.38 1.03-.93 1.07-.02 0-.05 0-.07 0z"/></g><g><path d="m51.52 33.07c-.06 0-.12 0-.18-.02-.54-.1-.9-.62-.81-1.16 1.3-7.18-1.89-15.45-1.92-15.53-.16-.41-.03-.88.31-1.15.35-.27.83-.29 1.19-.03 7.19 5.02 6.43 16.22 6.39 16.69-.04.55-.51.95-1.07.92-.55-.04-.96-.52-.92-1.07.01-.09.48-7.1-2.79-12.04.82 3.27 1.6 8.05.78 12.57-.08.48-.51.82-.98.82z"/></g><g><path d="m54.88 25.76c-.45 0-.86-.31-.97-.76-.1-.42-2.42-10.33 4.12-15.6.34-.28.82-.29 1.19-.05.36.24.53.7.4 1.12-.02.07-2 6.81-.54 11.78.16.53-.15 1.09-.68 1.24-.53.16-1.09-.15-1.24-.68-.86-2.92-.69-6.26-.33-8.81-2.36 4.61-1 10.46-.99 10.53.13.54-.2 1.08-.74 1.21-.06.01-.14.02-.22.02z"/></g><g><path d="m48.8 28.36c-.08 0-.17-.01-.25-.03-.53-.14-.86-.68-.72-1.21.01-.05.79-3.3-.88-5.83-.23-.35-.22-.81.03-1.15s.69-.48 1.09-.36c.17.05 4.15 1.28 4.65 5.77.06.55-.33 1.04-.88 1.11-.55.06-1.04-.33-1.11-.88-.11-.95-.44-1.7-.85-2.28.36 2.18-.09 4.01-.12 4.12-.1.44-.51.74-.96.74z"/></g><g><path d="m61.43 54.83h-58.86c-.55 0-1-.45-1-1s.45-1 1-1h58.86c.55 0 1 .45 1 1s-.45 1-1 1z"/></g><g><path d="m41.66 44.39h-14.24c-.55 0-1-.45-1-1v-20.01c0-2.12 1.72-3.84 3.84-3.84h8.56c2.12 0 3.84 1.72 3.84 3.84v20.01c0 .55-.45 1-1 1zm-13.24-2h12.24v-19.01c0-1.01-.82-1.84-1.84-1.84h-8.56c-1.01 0-1.84.82-1.84 1.84z"/></g><g><path d="m34.54 54.69c-.55 0-1-.45-1-1v-10.3c0-.55.45-1 1-1s1 .45 1 1v10.29c0 .56-.45 1.01-1 1.01z"/></g><g><path d="m38.72 54.69c-.03 0-.06 0-.1 0-.55-.05-.95-.54-.9-1.08 0-.04.09-1.33-.7-2.19-.52-.57-1.36-.85-2.48-.85s-1.96.29-2.48.85c-.8.87-.7 2.18-.7 2.19.04.55-.36 1.03-.91 1.08s-1.03-.35-1.08-.9c-.01-.09-.19-2.18 1.2-3.71.92-1.01 2.25-1.52 3.97-1.52s3.05.51 3.97 1.52c1.39 1.53 1.21 3.62 1.2 3.71-.05.51-.48.9-.99.9z"/></g><g><path d="m41.66 40.65h-14.24c-.55 0-1-.45-1-1s.45-1 1-1h14.24c.55 0 1 .45 1 1s-.45 1-1 1z"/></g></svg>