<svg id="Layer_1" enable-background="new 0 0 66 66" viewBox="0 0 66 66" xmlns="http://www.w3.org/2000/svg"><g><path d="m34.06 19.36h-11.79c-.27 0-.48.22-.48.48v13.02h-.39c-.27 0-.48.22-.48.48v2.62c0 .27.22.48.48.48h13.54c.27 0 .48-.22.48-.48v-2.62c0-.27-.22-.48-.48-.48h-.39v-13.02c-.01-.27-.22-.48-.49-.48zm-11.31.96h10.82v12.54h-10.82zm11.7 15.16h-12.57v-1.65h.39 11.79.39z"/><path d="m31.72 21.69h-7.12c-.27 0-.48.22-.48.48v8.83c0 .27.22.48.48.48h7.12c.27 0 .48-.22.48-.48v-8.83c.01-.26-.21-.48-.48-.48zm-.48.97v4.62h-6.15v-4.62zm-6.15 7.86v-2.28h6.15v2.28z"/><path d="m36.94 29.86c0-.27-.22-.48-.48-.48h-.84c-.27 0-.48.22-.48.48s.22.48.48.48h.36v1.1h-.36c-.27 0-.48.22-.48.48 0 .27.22.48.48.48h.84c.27 0 .48-.22.48-.48z"/><path d="m20.71 22.55c.27 0 .48-.22.48-.48 0-.27-.22-.48-.48-.48h-.84c-.27 0-.48.22-.48.48v2.07c0 .27.22.48.48.48h.84c.27 0 .48-.22.48-.48 0-.27-.22-.48-.48-.48h-.36v-1.1h.36z"/><path d="m53.26 36.45c.27 0 .48-.22.48-.48v-2.62c0-.27-.22-.48-.48-.48h-.39v-13.03c0-.27-.22-.48-.48-.48h-11.8c-.27 0-.48.22-.48.48v13.02h-.39c-.27 0-.48.22-.48.48v2.62c0 .27.22.48.48.48h13.54zm-.48-.97h-12.57v-1.65h.39 11.79.39zm-11.7-15.16h10.82v12.54h-10.82z"/><path d="m50.05 21.69h-7.12c-.27 0-.48.22-.48.48v8.83c0 .27.22.48.48.48h7.12c.27 0 .48-.22.48-.48v-8.83c0-.26-.21-.48-.48-.48zm-.48.97v4.62h-6.15v-4.62zm-6.15 7.86v-2.28h6.15v2.28z"/><path d="m54.79 32.41c.27 0 .48-.22.48-.48v-2.07c0-.27-.22-.48-.48-.48h-.84c-.27 0-.48.22-.48.48s.22.48.48.48h.36v1.1h-.36c-.27 0-.48.22-.48.48 0 .27.22.48.48.48h.84z"/><path d="m39.04 22.55c.27 0 .48-.22.48-.48 0-.27-.22-.48-.48-.48h-.84c-.27 0-.48.22-.48.48v2.07c0 .27.22.48.48.48h.84c.27 0 .48-.22.48-.48 0-.27-.22-.48-.48-.48h-.36v-1.1h.36z"/><path d="m21.39 57.31h13.54c.27 0 .48-.22.48-.48v-2.63c0-.27-.22-.48-.48-.48h-.39v-13.02c0-.27-.22-.48-.48-.48h-11.79c-.27 0-.48.22-.48.48v13.02h-.39c-.27 0-.48.22-.48.48v2.62c-.01.27.21.49.47.49zm13.06-.97h-12.57v-1.65h.39 11.79.39zm-11.7-15.16h10.82v12.54h-10.82z"/><path d="m31.72 42.55h-7.12c-.27 0-.48.22-.48.48v8.83c0 .27.22.48.48.48h7.12c.27 0 .48-.22.48-.48v-8.83c.01-.26-.21-.48-.48-.48zm-.48.97v4.62h-6.15v-4.62zm-6.15 7.86v-2.28h6.15v2.28z"/><path d="m36.46 53.27c.27 0 .48-.22.48-.48v-2.07c0-.27-.22-.48-.48-.48h-.84c-.27 0-.48.22-.48.48 0 .27.22.48.48.48h.36v1.1h-.36c-.27 0-.48.22-.48.48 0 .27.22.48.48.48h.84z"/><path d="m19.38 45c0 .27.22.48.48.48h.84c.27 0 .48-.22.48-.48 0-.27-.22-.48-.48-.48h-.36v-1.1h.36c.27 0 .48-.22.48-.48s-.22-.48-.48-.48h-.84c-.27 0-.48.22-.48.48z"/><path d="m49.78 42.81h-6.58c-.27 0-.48.22-.48.48v6.28c0 .27.22.48.48.48h6.58c.27 0 .48-.22.48-.48v-6.28c.01-.26-.21-.48-.48-.48zm-.48 6.28h-5.62v-5.31h5.62z"/><path d="m43.48 51.13c-.42 0-.76.34-.76.76s.34.76.76.76.76-.34.76-.76-.34-.76-.76-.76z"/><path d="m39.04 44.36c.27 0 .48-.22.48-.48 0-.27-.22-.48-.48-.48h-.84c-.27 0-.48.22-.48.48v2.07c0 .27.22.48.48.48h.84c.27 0 .48-.22.48-.48 0-.27-.22-.48-.48-.48h-.36v-1.1h.36z"/><path d="m63.99 63.5h-1.33c-.15-.24-.3-.48-.46-.71-.15-.22-.45-.27-.67-.12s-.27.45-.12.67c.04.05.07.11.1.16h-2.04v-1.85c2.77-.25 4.96-2.65 4.96-5.55 0-3.08-2.44-5.58-5.44-5.58s-5.44 2.5-5.44 5.58c0 1.3.44 2.5 1.17 3.44h-1.85v-18.84c0-.27-.22-.48-.48-.48h-11.79c-.27 0-.48.22-.48.48v18.85h-22.18v-44.43h39.22v33.59c0 .27.22.48.48.48s.48-.22.48-.48v-33.59h.86c.27 0 .48-.22.48-.48v-3.61c0-.27-.22-.48-.48-.48h-6.46v-2.64h1.11c.27 0 .48-.22.48-.48v-2.83c0-.27-.22-.48-.48-.48h-6c-.27 0-.48.22-.48.48v2.83c0 .27.22.48.48.48h1.11v2.63h-9.48v-3.42c1.33-.23 2.34-1.39 2.34-2.78 0-1.56-1.27-2.82-2.82-2.82-1.56 0-2.82 1.27-2.82 2.82 0 1.39 1.01 2.55 2.34 2.78v3.41h-26.41c-.27 0-.48.22-.48.48v3.61c0 .27.22.48.48.48h5.08v12.81h-1.45v-.8c0-.27-.22-.48-.48-.48-.27 0-.48.22-.48.48v.8h-2.57v-.8c0-.27-.22-.48-.48-.48-.27 0-.48.22-.48.48v.8h-2.59v-.8c0-.27-.22-.48-.48-.48s-.48.22-.48.48v5.73h-.43c-.27 0-.48.22-.48.48v2.62c0 .27.22.48.48.48h9.93v23.1h-.86c-.27 0-.48.22-.48.48v3.47h-10.88c2.33-2.19 5.89-3.97 10.4-5.18.26-.07.41-.34.34-.59-.07-.26-.33-.41-.59-.34-5.13 1.38-9.1 3.49-11.51 6.12h-1.39c-.27 0-.48.22-.48.48s.22.48.48.48h60.38 1.6c.27 0 .48-.22.48-.48s-.21-.46-.48-.46zm-27.06-59.15c0-1.02.83-1.85 1.85-1.85s1.85.83 1.85 1.85-.83 1.85-1.85 1.85-1.85-.83-1.85-1.85zm11.19.73h5.03v1.86h-5.03zm1.59 2.83h1.84v2.63h-1.84zm-37.34 3.6h46.13v2.65h-46.13zm2.18 17.39v3.96h-2.57v-3.96zm-6.11 0h2.57v3.96h-2.57zm8.53 6.58h-9.44v-1.65h9.44zm-1.45-2.62v-3.96h1.45v3.96zm43.47 18.63c2.47 0 4.47 2.07 4.47 4.61 0 2.37-1.75 4.33-3.99 4.58v-3.15c0-.27-.22-.48-.48-.48-.27 0-.48.22-.48.48v3.15c-2.24-.25-3.99-2.21-3.99-4.58-.01-2.54 2-4.61 4.47-4.61zm-17.9-10.31h10.81v18.36h-10.81zm-24.49 19.34h.86 35.24 2.97c.8.63 1.77 1.04 2.83 1.14v1.85h-41.9z"/><path d="m59.49 53.89c1.01 0 1.83.85 1.83 1.9 0 .27.22.48.48.48s.48-.22.48-.48c0-1.58-1.26-2.86-2.8-2.86-.27 0-.48.22-.48.48s.22.48.49.48z"/><path d="m7.83 7.16v13.92c0 .9.74 1.64 1.64 1.64h5.56c.27 0 .48-.22.48-.48s-.22-.48-.48-.48h-5.56c-.37 0-.67-.3-.67-.67v-13.93c1.33-.23 2.35-1.39 2.35-2.79 0-1.57-1.27-2.84-2.84-2.84s-2.83 1.27-2.83 2.84c0 1.4 1.02 2.56 2.35 2.79zm.49-4.66c1.03 0 1.87.84 1.87 1.87s-.84 1.87-1.87 1.87-1.87-.84-1.87-1.87.84-1.87 1.87-1.87z"/></g></svg>