<svg id="Layer_1" enable-background="new 0 0 512 512" viewBox="0 0 512 512" xmlns="http://www.w3.org/2000/svg"><path d="m307.18 360.59-41.02-26.76-7.94 13.75c-4.56 8.62-15.68 11.62-23.95 6.43l-20.98-12.1c-8.05-4.65-10.91-14.94-6.21-23.19l39.15-67.78c4.79-8.31 15.45-11.03 23.61-5.98l21.03 12.13v-.03c8.16 4.73 10.89 15.34 6.18 23.22h.03l-8.11 14.06 43.48 22.2c10.03-49.75-27.95-96.43-78.89-96.43-44.45 0-80.48 36.03-80.48 80.48 0 44.42 36.03 80.45 80.48 80.45 20.6-.02 39.39-7.73 53.62-20.45zm-33.02-40.6 43.94 28.69c3.83-5.1 7.06-10.69 9.58-16.64l-46.71-23.84zm-3.43-25.96 12.53-21.74h.03c.23-.43.08-1.11-.4-1.39v-.03l-21.46-12.36c-.45-.25-1.16-.06-1.39.37l-39.23 68c-.34.79.68 1.3.96 1.47l20.95 12.1c.45.26 1.13.08 1.42-.37zm-17.15-89.94c53.29 0 96.49 43.2 96.49 96.49 0 53.26-43.2 96.46-96.49 96.46-53.26 0-96.46-43.2-96.46-96.46-.01-53.29 43.19-96.49 96.46-96.49zm-170.51 104.54v-16.13c0-13.66 11.11-24.77 24.77-24.77 2.92 0 5.19.17 7.68-1.7 1.45-1.11 2.58-2.69 3.15-4.65 2.89-10.03 6.8-19.45 11.79-28.49 1.96-3.54 1.39-7.6-1.5-10.49l-1.64-1.64c-4.85-4.85-7.26-11.2-7.26-17.55h.03c0-6.35 2.41-12.7 7.23-17.52l11.4-11.4c9.67-9.67 25.37-9.67 35.04 0 2.07 2.04 3.54 3.77 6.6 4.22 1.84.26 3.77-.08 5.53-1.08 9.07-4.99 18.48-8.9 28.52-11.79 3.88-1.13 6.35-4.39 6.35-8.48v-2.32c0-13.66 11.06-24.77 24.77-24.77v-.03h16.1c13.66 0 24.8 11.14 24.8 24.8 0 2.89-.17 5.16 1.7 7.65 1.11 1.47 2.69 2.58 4.62 3.15 10.06 2.92 19.47 6.8 28.52 11.79 3.54 1.96 7.6 1.39 10.49-1.47l1.64-1.67c9.67-9.67 25.4-9.67 35.06 0l11.4 11.4c9.67 9.67 9.67 25.4 0 35.06-2.04 2.04-3.77 3.51-4.22 6.58-.26 1.84.08 3.77 1.08 5.56 4.99 9.04 8.87 18.45 11.79 28.49 1.13 3.91 4.39 6.35 8.48 6.35h2.32c13.66 0 24.8 11.11 24.8 24.77v16.13h-.03c0 13.72-11.11 24.77-24.77 24.77-2.89 0-5.16-.17-7.65 1.7-1.13.85-2.07 2.01-2.69 3.4l83.71 47.62c2.58 1.45 4.02 4.14 4.02 6.92h.03v89.66c0 4.42-3.57 7.99-7.99 7.99h-430.28c-4.42 0-8.02-3.57-8.02-7.99v-89.66c0-3.2 1.9-5.95 4.62-7.23l83.17-47.31c-1.45-3.2-4.42-5.1-8.02-5.1h-2.35c-13.67 0-24.79-11.11-24.79-24.77zm300.53 45.18c-2.07 5.05-4.28 9.72-6.89 14.46-1.96 3.51-1.42 7.57 1.47 10.46l1.67 1.64c9.67 9.67 9.67 25.4 0 35.06l-11.4 11.4c-9.89 9.89-26.19 9.55-35.46-.43l-1.25-1.25v.03c-2.89-2.89-6.94-3.46-10.49-1.5-9.04 4.99-18.45 8.9-28.52 11.79-3.88 1.13-6.32 4.39-6.32 8.48v2.35c0 13.66-11.14 24.77-24.8 24.77h-16.1c-13.66 0-24.77-11.11-24.77-24.77 0-2.92.17-5.19-1.7-7.68-1.11-1.47-2.69-2.58-4.65-3.15-4.62-1.33-10.23-3.26-14.57-5.1h-.03c-4.76-1.98-9.41-4.22-13.92-6.69-3.52-1.96-7.57-1.39-10.46 1.5l-1.67 1.64c-4.79 4.82-11.14 7.23-17.52 7.23v.03c-6.35 0-12.7-2.41-17.52-7.26l-11.4-11.4c-9.67-9.67-9.67-25.4 0-35.04 2.04-2.07 3.77-3.54 4.2-6.6.26-1.84-.08-3.77-1.05-5.53-2.61-4.73-4.85-9.41-6.92-14.46l-77.1 43.88v77.02h414.28v-77.02zm-284.54-61.31v16.13c0 4.82 3.97 8.79 8.79 8.79h2.35c11.08 0 20.69 7.2 23.78 17.89 2.52 8.7 6.12 17.35 10.49 25.26 5.36 9.75 3.66 21.63-4.2 29.48-2.32 2.32-4.2 4.05-4.2 7.88 0 2.24.85 4.51 2.55 6.21l11.4 11.4c1.7 1.7 3.94 2.55 6.21 2.55v.03c3.8 0 5.56-1.9 7.88-4.22 7.85-7.85 19.73-9.55 29.45-4.2 4 2.21 8.14 4.2 12.39 5.95h-.03c4.22 1.76 8.53 3.26 12.93 4.54 10.69 3.09 17.89 12.7 17.89 23.78 0 3.29-.11 5.84 2.58 8.53 1.59 1.62 3.8 2.61 6.21 2.61h16.1c4.85 0 8.82-3.97 8.82-8.79v-2.35c0-11.08 7.2-20.69 17.89-23.78 8.7-2.52 17.29-6.09 25.26-10.49 9.75-5.36 21.63-3.66 29.48 4.17l-.03.03c2.3 2.3 4.08 4.2 7.91 4.2 2.24 0 4.51-.85 6.21-2.55l11.4-11.4c3.4-3.4 3.4-9.01 0-12.42l-1.67-1.67c-7.85-7.85-9.52-19.73-4.17-29.48 4.37-7.91 7.97-16.55 10.49-25.26 3.09-10.69 12.7-17.89 23.78-17.89 3.29 0 5.84.11 8.53-2.58 1.62-1.62 2.61-3.83 2.61-6.21h-.03v-16.14c0-4.82-3.94-8.79-8.79-8.79h-2.32c-11.08 0-20.69-7.2-23.78-17.89-2.52-8.7-6.09-17.29-10.49-25.26-5.36-9.75-3.69-21.63 4.17-29.48 2.32-2.32 4.22-4.03 4.22-7.88 0-2.24-.85-4.51-2.55-6.21l-11.4-11.4c-3.43-3.4-9.01-3.4-12.44 0l-1.64 1.67c-7.85 7.82-19.73 9.52-29.48 4.17-7.97-4.39-16.55-7.97-25.26-10.49-10.69-3.09-17.92-12.7-17.92-23.78 0-3.29.14-5.84-2.58-8.53-1.59-1.62-3.77-2.61-6.21-2.61h-16.1v-.02c-4.76 0-8.79 3.97-8.79 8.84v2.32c0 11.08-7.2 20.69-17.89 23.78-8.7 2.52-17.32 6.09-25.28 10.49-9.72 5.36-21.6 3.66-29.45-4.17-2.32-2.32-4.05-4.22-7.88-4.22-2.27 0-4.51.85-6.21 2.55l-11.4 11.4c-1.73 1.73-2.61 3.97-2.61 6.21h.06c0 3.85 1.87 5.56 4.2 7.88 7.85 7.85 9.55 19.73 4.2 29.48-4.39 7.94-7.97 16.55-10.49 25.26-3.09 10.69-12.7 17.89-23.78 17.89-3.29 0-5.84-.11-8.56 2.58-1.61 1.62-2.6 3.8-2.6 6.21zm-60.86-156.64 211.69-110.24c2.41-1.25 5.16-1.16 7.4 0l211.95 110.38c2.75 1.42 4.31 4.22 4.31 7.09v52.19c0 5.9-6.32 10.03-11.96 6.94l-208.01-108.32-208.26 108.46c-5.39 2.81-11.71-1.22-11.68-7.09h-.03v-52.19c0-3.17 1.9-5.95 4.59-7.22zm215.38-94.14-203.96 106.21v34.16l200.24-104.29c2.24-1.16 4.99-1.28 7.4-.03l200.3 104.31v-34.16z"/></svg>